<?xml version="1.0" encoding="utf-8"?>
<!-- Generator: Adobe Illustrator 21.1.0, SVG Export Plug-In . SVG Version: 6.00 Build 0)  -->
<svg version="1.1" id="Layer_1" xmlns="http://www.w3.org/2000/svg" xmlns:xlink="http://www.w3.org/1999/xlink" x="0px" y="0px"
	 viewBox="0 0 90 90" style="enable-background:new 0 0 90 90;" xml:space="preserve">
<style type="text/css">
	.st0{fill:#E22727;}
</style>
<g>
	<path class="st0" d="M44.2,67.9c-0.5,0.3-0.7,1-0.5,1.5c0.2,0.6,0.7,1,1.3,1c0.7,0,1.2-0.5,1.4-1.1C46.6,68,45.2,67.1,44.2,67.9z"
		/>
	<path class="st0" d="M3.9,27.3c0.8,0,1.4-0.6,1.4-1.4v-9.8c0-2.2,1.8-4,4-4H48l-3.6,3.6c-0.5,0.5-0.5,1.4,0,2c0.5,0.5,1.4,0.5,2,0
		L56.6,7.3l15.3,15.3L46.8,47.6h-6.1L28.5,35.4l14.7-14.7c0.5-0.5,0.5-1.4,0-2c-0.5-0.5-1.4-0.5-2,0L25.5,34.5c-0.5,0.5-0.5,1.4,0,2
		l6.5,6.5h-5.2c-0.8,0-1.4,0.6-1.4,1.4v9.4c0,0.8,0.6,1.4,1.4,1.4h36.2c0.8,0,1.4-0.6,1.4-1.4v-9.4c0-0.8-0.6-1.4-1.4-1.4h-7.7
		l19.4-19.4c0.5-0.5,0.5-1.4,0-2L57.6,4.3c-0.3-0.3-0.6-0.4-1-0.4c-0.4,0-0.7,0.1-1,0.4l-4.9,4.9H9.3c-3.7,0-6.8,3-6.8,6.8v9.8
		C2.5,26.6,3.1,27.3,3.9,27.3z M61.7,45.7v6.6H28.3v-6.6h6.6l1.9,1.9h-4.7c-0.8,0-1.4,0.6-1.4,1.4c0,0.8,0.6,1.4,1.4,1.4h25.8
		c0.8,0,1.4-0.6,1.4-1.4c0-0.8-0.6-1.4-1.4-1.4h-7.2l1.9-1.9L61.7,45.7L61.7,45.7z"/>
	<path class="st0" d="M80.7,9.3H66.9c-0.8,0-1.4,0.6-1.4,1.4s0.6,1.4,1.4,1.4h13.9c2.2,0,4,1.8,4,4v47.2h-8.7
		c-0.8,0-1.4,0.6-1.4,1.4s0.6,1.4,1.4,1.4h8.7v2.5c0,2.2-1.8,4-4,4H54.9c0,0,0,0,0,0H35.1c0,0,0,0,0,0H9.3c-2.2,0-4-1.8-4-4V66h66.2
		c0.8,0,1.4-0.6,1.4-1.4s-0.6-1.4-1.4-1.4H5.3V30.5c0-0.8-0.6-1.4-1.4-1.4s-1.4,0.6-1.4,1.4v38.1c0,3.7,3,6.8,6.8,6.8H33l-3.4,8
		h-6.6c-0.8,0-1.4,0.6-1.4,1.4s0.6,1.4,1.4,1.4h44.2c0.8,0,1.4-0.6,1.4-1.4s-0.6-1.4-1.4-1.4h-6.6l-3.4-8h23.7c3.7,0,6.8-3,6.8-6.8
		V16.1C87.5,12.3,84.5,9.3,80.7,9.3z M57.4,83.3H32.6l2.4-5.5h20.1L57.4,83.3z"/>
	<path class="st0" d="M49.6,20.7c-2.3-0.2-4.3,0.4-5.8,1.9c-3,3-2.5,8.2,1,11.7c1.7,1.7,3.8,2.7,5.9,2.9c0.3,0,0.6,0,0.9,0
		c1.9,0,3.7-0.7,4.9-2c3-3,2.5-8.2-1-11.7C53.9,22,51.8,20.9,49.6,20.7z M54.6,33.4c-1.9,1.9-5.4,1.4-7.8-1c-2.4-2.4-2.9-5.9-1-7.8
		c0.8-0.8,1.8-1.2,3-1.2c1.6,0,3.4,0.7,4.8,2.2C56,28,56.5,31.5,54.6,33.4z"/>
	<path class="st0" d="M60.4,15.5l-4.3,4.3c-0.5,0.5-0.5,1.4,0,2c0.3,0.3,0.6,0.4,1,0.4c0.4,0,0.7-0.1,1-0.4l4.3-4.3
		c0.5-0.5,0.5-1.4,0-2C61.8,14.9,60.9,14.9,60.4,15.5z"/>
	<path class="st0" d="M60.4,21.5c-0.5,0.5-0.5,1.4,0,2c0.3,0.3,0.6,0.4,1,0.4c0.4,0,0.7-0.1,1-0.4l1.7-1.7c0.5-0.5,0.5-1.4,0-2
		c-0.5-0.5-1.4-0.5-2,0L60.4,21.5z"/>
	<path class="st0" d="M42.9,34.9c-0.5-0.5-1.4-0.5-2,0l-4.3,4.3c-0.5,0.5-0.5,1.4,0,2c0.3,0.3,0.6,0.4,1,0.4s0.7-0.1,1-0.4l4.3-4.3
		C43.4,36.3,43.4,35.4,42.9,34.9z"/>
	<path class="st0" d="M41.9,43.2c0.4,0,0.7-0.1,1-0.4l1.7-1.7c0.5-0.5,0.5-1.4,0-2c-0.5-0.5-1.4-0.5-2,0l-1.7,1.7
		c-0.5,0.5-0.5,1.4,0,2C41.2,43.1,41.6,43.2,41.9,43.2z"/>
</g>
</svg>
