<svg width="600" height="324" viewBox="0 0 600 324" xmlns="http://www.w3.org/2000/svg"><title>Group 5</title><g transform="translate(0 .5)" fill="none" fill-rule="evenodd"><rect fill="#999" x="6" y="319" width="391" height="2" rx="1"/><path d="M577.66 252.081c-7.491.253-13.144-1.152-16.96-4.213-5.723-4.591-5.298-13.838-2.99-16.153 2.306-2.315 3.742-.846 6.749-1.235 3.006-.389 2.707-3.5 1.238-5.355-1.469-1.854-5.907-4.757-7.988-7.73-2.08-2.971-2.807-8.11.698-10.769 2.337-1.772 4.93-1.647 7.78.375 3.301 2.287 5.224 2.859 5.769 1.715.817-1.715-1.802-10.287-1.802-13.907 0-3.62.98-10.747 7.506-10.956.402-.013.402 22.73 0 68.228zm.643 0c-.402-45.498-.402-68.24 0-68.228 6.526.21 7.506 7.336 7.506 10.956 0 3.62-2.618 12.192-1.801 13.907.545 1.144 2.467.572 5.768-1.715 2.85-2.022 5.443-2.147 7.78-.375 3.505 2.658 2.779 7.798.698 10.77-2.08 2.972-6.519 5.875-7.988 7.73-1.469 1.853-1.768 4.965 1.239 5.354 3.006.389 4.442-1.08 6.75 1.235 2.306 2.315 2.731 11.562-2.992 16.153-3.815 3.061-9.469 4.466-16.96 4.213z" fill="#F4DAD8"/><path d="M579.236 245.796v35.2a.838.838 0 1 1-1.676 0V246.06a.77.77 0 0 1-.47-.18l-9.844-8.26a.772.772 0 0 1 .993-1.183l9.32 7.82v-20.33a.77.77 0 0 1-.47-.18l-9.843-8.259a.772.772 0 0 1 .993-1.183l9.32 7.82v-22.02a.838.838 0 0 1 1.677 0v22.246l9.59-8.046a.772.772 0 1 1 .992 1.183l-9.843 8.26a.772.772 0 0 1-.739.141v19.89l8.75-7.342a.772.772 0 1 1 .994 1.183l-9.744 8.176zM542.877 186.016c-9.926.338-17.417-1.542-22.472-5.64-7.583-6.146-7.02-18.525-3.963-21.624 3.056-3.1 4.96-1.133 8.943-1.653 3.983-.52 3.587-4.687 1.64-7.169-1.946-2.482-7.826-6.369-10.583-10.347-2.757-3.979-3.72-10.86.925-14.418 3.096-2.372 6.532-2.205 10.309.502 4.373 3.062 6.92 3.827 7.642 2.296 1.083-2.296-2.387-13.771-2.387-18.617 0-4.847 1.298-14.387 9.946-14.667.532-.017.532 30.429 0 91.337zm.852 0c-.533-60.908-.533-91.354 0-91.337 8.647.28 9.945 9.82 9.945 14.667 0 4.846-3.47 16.321-2.387 18.617.722 1.531 3.27.766 7.643-2.296 3.776-2.707 7.213-2.874 10.309-.502 4.645 3.559 3.682 10.44.925 14.418-2.757 3.978-8.638 7.865-10.584 10.347-1.946 2.482-2.343 6.649 1.64 7.169 3.984.52 5.887-1.447 8.944 1.653 3.057 3.099 3.62 15.478-3.964 21.625-5.055 4.097-12.546 5.977-22.471 5.64z" fill="#F7B29F"/><path d="M544.792 177.063v46.524a1 1 0 0 1-1 1h-.235a1 1 0 0 1-1-1v-46.156a.996.996 0 0 1-.598-.233l-13.165-11.047a1 1 0 0 1-.123-1.409l.025-.03a1 1 0 0 1 1.409-.123l12.452 10.449v-26.82a.996.996 0 0 1-.598-.234l-13.165-11.047a1 1 0 0 1-.123-1.409l.025-.03a1 1 0 0 1 1.409-.123l12.452 10.449v-29.228a1 1 0 0 1 1-1h.235a1 1 0 0 1 1 1v29.528l12.81-10.749a1 1 0 0 1 1.409.123l.025.03a1 1 0 0 1-.123 1.41l-13.166 11.046a1 1 0 0 1-.955.184V174.4l11.692-9.812a1 1 0 0 1 1.41.124l.024.03a1 1 0 0 1-.123 1.408l-13.003 10.912z" fill="#F4DAD8"/><path d="M2.202 287.316c10.114-6.894 18.437-18.029 24.97-33.405 9.798-23.063 25.348-75.271 39.595-95.82 14.246-20.547 42.306-25.128 64.933-11.777 22.627 13.35 49.152 35.117 79.502 19.081 30.349-16.036 22.09-131.874 103.384-125.51 36.942 2.893 57.326 50.673 76.545 98.149 9.545 23.577 18.845 35.91 37.081 35.91 18.236 0 21.481-45.283 50.925-41.927 29.444 3.357 41.992 27.642 47.55 37.13 22.955 39.178 14.994 71.33 34.98 91.71 13.324 13.587 24.783 22.407 34.375 26.46" fill="#D8D8D8"/><path d="M321.468 287.278c4.261-4.007 9.267-12.2 15.017-24.58 8.625-18.571 17.044-34.197 25.602-47.182 8.559-12.985 25.882-18.728 36.338-12.559 10.455 6.17 11.244 22.025 23.058 26.304 11.814 4.28 6.769-59.259 44.334-56.318 17.07 1.337 26.49 23.415 35.37 45.353 4.411 10.895 4.808 16.326 14.33 16.326 9.523 0 16.598-19.106 26.163-20.385 9.566-1.28 14.398 11.551 16.73 15.958 4.497 8.501 12.345 35.44 21.58 44.857 6.157 6.278 11.452 10.353 15.885 12.226" fill="#999"/><path d="M0 287.23c5.833-1.82 11.739-7.496 17.718-17.031 8.968-14.302 11.793-22.047 17.676-37.82 5.883-15.771 15.937-20.777 23.67-15.723 7.733 5.055 10.2 17.339 20.154 20.944 9.953 3.605 28.752-7.112 33.78-11.91 5.027-4.797 26.325-24.392 51.215-20.382 24.89 4.01 32.632 24.16 36.42 31.323 3.79 7.162 11.404 32.54 17.92 40.5 4.344 5.306 8.557 8.672 12.64 10.098" fill="#9FA1AF"/><path d="M62.43 203.64c-7.49.253-13.144-1.151-16.959-4.212-5.723-4.591-5.298-13.839-2.991-16.154 2.307-2.315 3.743-.846 6.75-1.234 3.006-.389 2.706-3.501 1.238-5.355-1.47-1.854-5.907-4.758-7.988-7.73-2.081-2.971-2.808-8.111.698-10.77 2.337-1.771 4.93-1.646 7.78.376 3.3 2.287 5.223 2.858 5.768 1.715.817-1.715-1.801-10.287-1.801-13.907 0-3.62.98-10.747 7.506-10.956.402-.013.402 22.73 0 68.228zm.644 0c-.402-45.497-.402-68.24 0-68.227 6.526.209 7.506 7.336 7.506 10.956 0 3.62-2.619 12.192-1.802 13.907.545 1.143 2.468.572 5.768-1.715 2.85-2.022 5.444-2.147 7.78-.375 3.506 2.658 2.78 7.798.699 10.77-2.08 2.971-6.519 5.875-7.988 7.729-1.469 1.854-1.768 4.966 1.238 5.355 3.007.388 4.443-1.08 6.75 1.234 2.307 2.315 2.732 11.563-2.991 16.154-3.816 3.06-9.47 4.465-16.96 4.213z" fill="#F7B29F"/><path d="M64.007 197.356v35.2a.838.838 0 1 1-1.677 0V197.62a.77.77 0 0 1-.47-.18l-9.843-8.26a.772.772 0 0 1 .993-1.183l9.32 7.821v-20.33a.77.77 0 0 1-.47-.18l-9.843-8.26a.772.772 0 0 1 .993-1.183l9.32 7.821v-22.021a.838.838 0 0 1 1.677 0v22.247l9.589-8.047a.772.772 0 1 1 .993 1.184l-9.843 8.26a.772.772 0 0 1-.74.141v19.89l8.752-7.343a.772.772 0 1 1 .992 1.184l-9.743 8.176z" fill="#F4DAD8"/><g transform="translate(108.99)"><rect fill="#D8D8D8" width="379.817" height="308.257" rx="1"/><g transform="translate(11.11 7.807)"><path d="M6.972 5.415l4.165-4.164a1 1 0 0 1 1.414 0l.143.143a1 1 0 0 1 0 1.414L8.529 6.972l4.165 4.165a1 1 0 0 1 0 1.414l-.143.143a1 1 0 0 1-1.414 0L6.972 8.529l-4.164 4.165a1 1 0 0 1-1.414 0l-.143-.143a1 1 0 0 1 0-1.414l4.164-4.165-4.164-4.164a1 1 0 0 1 0-1.414l.143-.143a1 1 0 0 1 1.414 0l4.164 4.164z" fill="#E6E6E6"/><circle stroke="#E6E6E6" stroke-width="2" cx="41.183" cy="7.055" r="6.055"/><rect fill="#E6E6E6" x="18.532" y="5.404" width="11.009" height="2.202" rx="1.101"/></g><rect fill="#E6E6E6" x="9.908" y="28.624" width="361.101" height="269.725" rx="1"/><rect fill="#FFF" x="9.908" y="28.624" width="106.789" height="269.725" rx="1"/><circle fill="#D8D8D8" cx="42.936" cy="58.349" r="15.413"/><rect fill="#FFF" x="132.11" y="45.138" width="224.587" height="242.202" rx="1"/><g fill-rule="nonzero"><g fill="#D9D8D7"><path d="M162.125 171.252h21.049v22.352h-21.05zM198.272 133.457h21.056v60.122h-21.056zM234.408 149.95h21.049v43.622h-21.05zM270.545 103.876h21.043v89.696h-21.043zM306.682 117.026h21.056v76.545h-21.056z"/></g><g fill="#999"><path d="M162.125 186.838h21.049v5.24h-21.05zM198.272 177.966h21.056v14.094h-21.056zM234.408 181.862h21.049v10.224h-21.05zM270.545 171.027h21.043v21.033h-21.043zM306.682 174.131h21.056v17.947h-21.056z"/></g><g fill="#6D6F75"><path d="M162.125 161.515h21.049v9.087h-21.05zM198.272 104.657h21.056v28.242h-21.056zM234.408 143.568h21.049v5.78h-21.05zM270.545 89.95h21.043v13.428h-21.043zM306.682 81.85h21.056v34.672h-21.056z"/></g><path fill="#999" d="M161.835 202.569h165.138v7.706H161.835z"/><g fill="#D9D8D7"><path d="M210.739 235.187h116.828v4.84H210.739zM162.125 235.187h39.498v4.84h-39.498zM162.125 250.17h165.433v4.832H162.125zM162.125 265.12h82.717v4.833h-82.717z"/></g></g><rect fill="#D8D8D8" opacity=".143" x="321.468" y="11.009" width="24.22" height="6.606" rx="3.303"/><path d="M356.596 8.807h10.11a1 1 0 0 1 1 1v.202a1 1 0 0 1-1 1h-10.11a1 1 0 0 1-1-1v-.202a1 1 0 0 1 1-1zm0 4.954h10.11a1 1 0 0 1 1 1v.202a1 1 0 0 1-1 1h-10.11a1 1 0 0 1-1-1v-.202a1 1 0 0 1 1-1zm0 4.955h10.11a1 1 0 0 1 1 1v.201a1 1 0 0 1-1 1h-10.11a1 1 0 0 1-1-1v-.201a1 1 0 0 1 1-1z" fill="#E6E6E6"/><path d="M132.66 74.312h221.285" stroke="#D5DBF0" stroke-linecap="square"/><circle fill="#D8D8D8" cx="345.688" cy="60.55" r="3.303"/><circle fill="#D8D8D8" cx="24.22" cy="85.872" r="4.404"/><circle fill="#D8D8D8" cx="24.22" cy="156.33" r="4.404"/><circle fill="#D8D8D8" cx="102.385" cy="131.009" r="4.404"/><rect stroke="#979797" opacity=".2" x="142.518" y="53.344" width="39.734" height="13.312" rx="1"/><rect fill="#D8D8D8" x="148.624" y="57.248" width="26.422" height="5.505" rx="2.752"/><rect fill="#D8D8D8" x="33.028" y="81.468" width="57.248" height="8.807" rx="4.404"/><rect fill="#D8D8D8" x="33.028" y="151.927" width="57.248" height="8.807" rx="4.404"/><rect fill="#D8D8D8" x="36.33" y="126.606" width="57.248" height="18.716" rx="9.358"/><rect fill="#D8D8D8" x="33.028" y="94.679" width="57.248" height="18.716" rx="9.358"/></g><path d="M39.633 320.256c4.261-4.006 9.267-12.2 15.017-24.58 8.625-18.57 17.044-34.196 25.603-47.181 8.558-12.985 25.881-18.729 36.337-12.56 10.456 6.17 11.244 22.026 23.058 26.305s28.136-9.33 34.104-15.025c5.967-5.694 31.246-28.951 60.789-24.192 29.542 4.76 38.73 28.676 43.228 37.177 4.497 8.501 13.534 38.622 21.268 48.07 5.156 6.3 10.157 10.294 15.003 11.986" fill="#ED6201"/><path d="M394.786 280.674c-9.73.33-17.072-1.504-22.028-5.502-7.433-5.997-6.881-18.075-3.885-21.099 2.996-3.024 4.862-1.105 8.766-1.613 3.905-.507 3.517-4.572 1.609-6.994-1.908-2.422-7.673-6.214-10.375-10.095-2.703-3.882-3.646-10.595.907-14.067 3.035-2.314 6.403-2.151 10.105.49 4.287 2.987 6.784 3.733 7.491 2.24 1.062-2.24-2.34-13.436-2.34-18.165 0-4.728 1.273-14.036 9.75-14.31.522-.016.522 29.689 0 89.115zm.835 0c-.522-59.426-.522-89.131 0-89.114 8.476.273 9.749 9.581 9.749 14.31 0 4.728-3.401 15.924-2.34 18.164.708 1.493 3.205.747 7.491-2.24 3.702-2.641 7.07-2.804 10.106-.49 4.553 3.472 3.61 10.185.907 14.067-2.703 3.881-8.467 7.673-10.375 10.095-1.908 2.422-2.296 6.487 1.608 6.994 3.905.508 5.77-1.41 8.767 1.613 2.996 3.024 3.548 15.102-3.886 21.099-4.955 3.998-12.298 5.832-22.027 5.502z" fill="#F7B29F"/><path d="M396.33 272.728v45.538a1 1 0 0 1-1 1h-.202a1 1 0 0 1-1-1V273.09a.995.995 0 0 1-.596-.233l-12.95-10.867a.999.999 0 1 1 1.284-1.53l12.262 10.289v-26.283a.995.995 0 0 1-.596-.233l-12.95-10.867a.999.999 0 1 1 1.284-1.53l12.262 10.29v-28.648a1 1 0 0 1 1-1h.202a1 1 0 0 1 1 1v28.943l12.615-10.585a.999.999 0 1 1 1.284 1.53l-12.95 10.867a.998.998 0 0 1-.949.186v25.702l11.514-9.661a.999.999 0 0 1 1.285 1.53l-12.799 10.74z" fill="#F4DAD8"/><rect fill="#D8D8D8" x="74.862" y="167.339" width="161.835" height="155.229" rx="1"/><rect fill="#FFF" x="82.569" y="175.046" width="146.422" height="138.716" rx="1"/><g fill-rule="nonzero"><path d="M122.202 216.614l-17.318 21.184c-11.816-9.475-13.636-26.64-4.071-38.336 5.375-6.576 12.85-10.104 21.389-10.104v27.256z" fill="#E5E7F1"/><path d="M122.202 216.88l-2.443 27.524c-5.773-.5-10.668-2.45-15.172-6.052l17.615-21.471z" fill="#D9D8D7"/><path d="M122.383 217.141l24.357-12.37c6.853 13.408 1.506 29.821-11.947 36.65-4.763 2.418-9.465 3.33-14.793 2.866l2.383-27.146z" fill="#999"/><path d="M122.202 216.88v-27.522c10.628 0 19.393 5.438 24.22 15.03l-24.22 12.493z" fill="#FFF"/><g fill="#D9D8D7"><path d="M183.232 192.82h17.965v3.779h-17.965zM204.063 192.82h7.544v3.779h-7.544zM183.232 223.104h28.357v3.78h-28.357zM207.126 238.257h4.48v3.776h-4.48zM183.232 238.257h21.485v3.776h-21.485zM183.232 207.967h5.247v3.778h-5.247zM192.126 207.967h7.99v3.778h-7.99zM203.605 207.967h7.985v3.778h-7.985z"/></g><path d="M179.45 194.311a4.951 4.951 0 0 1-4.951 4.955 4.953 4.953 0 0 1-4.958-4.955 4.951 4.951 0 0 1 4.958-4.953 4.95 4.95 0 0 1 4.95 4.953z" fill="#FFF"/><path d="M179.45 209.726a4.952 4.952 0 0 1-4.951 4.953 4.952 4.952 0 0 1-4.958-4.953 4.953 4.953 0 0 1 4.958-4.955 4.95 4.95 0 0 1 4.95 4.955z" fill="#D9D8D7"/><path d="M179.45 225.139a4.952 4.952 0 0 1-4.951 4.953 4.952 4.952 0 0 1-4.958-4.953 4.953 4.953 0 0 1 4.958-4.956 4.95 4.95 0 0 1 4.95 4.956z" fill="#6D6F75"/><path d="M179.45 240.55a4.951 4.951 0 0 1-4.951 4.955 4.953 4.953 0 0 1-4.958-4.955 4.953 4.953 0 0 1 4.958-4.954 4.95 4.95 0 0 1 4.95 4.954z" fill="#999"/></g></g></svg>