<?xml version="1.0" encoding="UTF-8" standalone="no"?>
<svg width="300px" height="275px" viewBox="0 0 300 275" version="1.1" xmlns="http://www.w3.org/2000/svg" xmlns:xlink="http://www.w3.org/1999/xlink">
    <!-- Generator: Sketch 48.2 (47327) - http://www.bohemiancoding.com/sketch -->
    <title>STEP2</title>
    <desc>Created with Sketch.</desc>
    <defs></defs>
    <g id="TEST-A-CONTENT" stroke="none" stroke-width="1" fill="none" fill-rule="evenodd" transform="translate(-568.000000, -135.000000)">
        <g id="STEP2" transform="translate(568.000000, 135.000000)">
            <path d="M155.840251,262.682482 C62.3801086,262.682482 91.5650846,181.164363 19.2411436,130.598154 C-9.56499361,110.457974 -6.3874648,68.8983281 31.2114069,61.3809014 C66.3694704,54.351484 92.6128048,40.241719 100.907173,24.490379 C113.729037,0.141138849 141.044381,-6.67979507 168.241932,6.86290962 C184.644084,15.0301706 204.741775,20.1735629 225.425979,19.6307116 C260.290882,37.0610944 261.999091,69.6050667 272.270869,103.866671 C277.163727,120.186843 296.670355,134.913612 299.461365,152.326888 C303.518245,177.638008 283.695851,184.207133 272.270869,193.463726 C270.140233,195.18998 293.10934,196.932251 289.710822,220.257325 C288.495731,228.596871 263.535986,269.882392 228.256189,274.180852 C216.090885,275.663062 201.046161,272.846812 200.749071,258.31695 C200.551165,248.637935 208.83195,236.217069 213.293059,230.132519 C215.317362,227.371553 211.419978,224.847973 208.83195,226.384066 C189.037111,238.133054 178.450947,262.682482 155.840251,262.682482 Z M76.9956879,33.45247 C60.9113135,42.9886043 52.5638605,37.9828268 49.5298355,33.4846998 C46.4958104,28.9865727 50.0993029,20.2944728 59.3916732,14.0266899 C68.6840435,7.75890699 79.417707,6.56595717 83.6582287,9.76899947 C87.8987504,12.9720418 93.0800623,23.9163356 76.9956879,33.45247 Z" id="Combined-Shape" fill="#E9EBF6" transform="translate(150.000000, 137.266383) scale(-1, -1) translate(-150.000000, -137.266383) "></path>
            <g id="Group-17" transform="translate(13.333333, 21.359223)">
                <g id="Group-37" transform="translate(0.000000, 30.415168)">
                    <g id="Group-3-Copy-3" transform="translate(0.000000, 46.165880)">
                        <ellipse id="Oval-8-Copy-2" stroke="#C0B9F1" stroke-width="2" cx="134.26555" cy="95.5946017" rx="1.16820929" ry="1.16962702"></ellipse>
                        <ellipse id="Oval-8-Copy-3" stroke="#C0B9F1" stroke-width="2" cx="47.0392566" cy="136.531547" rx="1.16820929" ry="1.16962702"></ellipse>
                        <rect id="Rectangle-7-Copy" stroke="#C0B9F1" stroke-width="2" x="56.6061247" y="111.020002" width="3.84104644" height="4.23801076" rx="1.92052322"></rect>
                        <g id="Group-31" transform="translate(83.842045, 119.568595) rotate(4.000000) translate(-83.842045, -119.568595) translate(38.842045, 65.068595)">
                            <g id="Group-33" transform="translate(39.638426, 47.364799) rotate(16.000000) translate(-39.638426, -47.364799) translate(9.638426, 8.364799)">
                                <path d="M33.5303242,0 C31.9401528,15.1633611 31.3887172,24.9118354 31.8760174,29.2454228 C32.6069677,35.7458039 33.0314216,44.5491495 38.6489102,50.7697674 C42.3939026,54.916846 46.2993947,58.3075635 50.3653864,60.94192 L47.5111995,64.7453448 C38.1293812,62.3813938 31.4541417,59.1613738 27.4854811,55.0852848 C21.5324902,48.9711512 15.103093,37.776296 10.3382415,26.4264225 C7.16167388,18.8598402 3.84409334,10.0510327 0.385499886,0 L33.5303242,0 Z" id="Path-11" fill="#22848E"></path>
                                <path d="M54.22692,64.3321452 C55.0020788,64.0717575 56.1079755,64.0717575 57.5446101,64.3321452 C58.0095932,67.2917692 58.2420848,68.9489084 58.2420848,69.3035629 C58.2420848,69.6582174 54.0005586,71.2242167 45.5175063,74.0015608 C44.8444119,73.1118114 45.5453835,72.2665846 47.620421,71.4658802 C50.7329773,70.2648238 50.8810998,67.7826732 54.22692,64.3321452 Z" id="Path-12-Copy" fill="#171143" transform="translate(51.756151, 69.069208) rotate(-61.000000) translate(-51.756151, -69.069208) "></path>
                            </g>
                            <g id="Group-32" transform="translate(59.840579, 54.323725) rotate(344.000000) translate(-59.840579, -54.323725) translate(44.340579, 2.323725)">
                                <path d="M0.580411569,0.126324801 L30.4801561,1.21183044 C22.91739,13.9760763 18.5027842,24.3610621 17.2363387,32.3667879 C15.98536,40.2747421 16.5219487,50.4581771 16.0534006,61.3803614 C15.8256937,66.6883684 16.0055997,75.8940956 16.5931184,88.9975428 L12.1575005,88.9975428 C7.07140937,76.8828588 3.64851618,63.485846 1.88882096,48.8065043 C0.129125744,34.1271626 -0.307010721,17.9004361 0.580411569,0.126324801 Z" id="Path-6" fill="#3EB2BD"></path>
                                <path d="M14.1173272,90.3503234 C14.9977467,90.0545771 16.2023943,90.1803138 17.7312702,90.7275337 C18.2570675,93.6219683 18.5199661,95.2705926 18.5199661,95.6734064 C18.5199661,96.0762203 14.6982273,98.1926371 7.05474961,102.022657 C6.62614934,101.279114 6.98715432,100.504881 8.13776454,99.6999581 C9.86367988,98.492574 11.6417683,94.9053091 14.1173272,90.3503234 Z" id="Path-12" fill="#261B72" transform="translate(12.700116, 96.108670) rotate(-13.000000) translate(-12.700116, -96.108670) "></path>
                            </g>
                        </g>
                        <path d="M55.4772492,25.5104209 C57.3695423,26.4464603 57.176593,28.1965715 61.6332312,28.1965715 C62.603292,26.7444212 65.9587547,22.6477363 66.8848097,23.3831341 C68.7177724,24.8387244 70.9505623,34.6107737 70.0472287,42.1835861 C69.17346,49.5085504 66.6712675,56.4455977 62.5406512,62.9947279 C62.1218336,65.2607103 63.5698865,67.6798149 66.8848097,70.2520415 C71.8571946,74.1103814 75.3839542,74.7178218 86.6609188,74.7178218 C97.9378833,74.7178218 100.482179,70.5795996 102.511087,69.0739305 C104.539994,67.5682614 106.184301,32.7079482 102.511087,26.3537791 C98.8378724,19.99961 81.4772741,0.460087348 79.6858067,0.460087348 C77.8943394,0.460087348 73.1838729,0.592836647 70.0472287,1.95303598 C68.4701773,2.6369211 66.1425967,4.28031716 65.0748438,6.1137966 C64.0070909,7.94727604 61.9586216,11.6745803 60.5745248,14.0620807 C58.2587482,18.056684 55.4772492,23.5538324 55.4772492,25.5104209 Z" id="Path-14" fill="#4028CC"></path>
                        <path d="M15.0293377,46.0647042 L59.5455848,50.0009245 C60.2707782,50.0650476 60.9038473,50.5181688 61.1984099,51.1839392 L72.5045928,76.7381759 C72.9515085,77.7482948 72.4949421,78.9294547 71.4848232,79.3763703 C71.1866793,79.5082807 70.8608083,79.565306 70.5355867,79.5424806 L26.9570456,76.4839537 C26.2301835,76.4329394 25.588581,75.990658 25.2823161,75.3294978 L13.0384272,48.8975676 C12.5741566,47.8953069 13.0102837,46.7064483 14.0125445,46.2421777 C14.3301094,46.0950741 14.6807165,46.0338783 15.0293377,46.0647042 Z" id="Rectangle-18" fill="#F0EEFF" transform="translate(42.764406, 62.802160) scale(-1, 1) rotate(-35.000000) translate(-42.764406, -62.802160) "></path>
                        <path d="M21.1500078,55.0422439 L50.8669647,57.6780345 C51.5850194,57.7417234 52.2132399,58.1869039 52.5113001,58.8432719 L59.7373532,74.7559957 C60.1940604,75.7617254 59.7489898,76.9472648 58.74326,77.4039721 C58.4383967,77.5424121 58.1036553,77.6020986 57.7697315,77.5775581 L28.651362,75.4376172 C27.9349941,75.3849706 27.3018759,74.9522081 26.9926993,74.303853 L19.1680589,57.8952795 C18.6926209,56.8982677 19.11544,55.7046113 20.1124518,55.2291734 C20.4353611,55.0751899 20.793662,55.0106372 21.1500078,55.0422439 Z" id="Rectangle-18-Copy" fill="#261B72" transform="translate(39.444826, 66.308680) scale(-1, 1) rotate(-35.000000) translate(-39.444826, -66.308680) "></path>
                        <path d="M42.5110001,33.8208204 C44.1275236,34.4788026 47.046043,35.8868405 48.4256711,36.3845633 C49.8052991,36.8822862 53.3322259,38.0685536 55.4603032,37.8796857 C57.5883805,37.6908179 59.0883118,34.9222915 59.7788587,35.5614253 C60.4694055,36.200559 59.7788587,36.4125451 59.7788587,37.445871 C59.7788587,38.4791968 60.5900851,38.5762183 61.670621,39.1513547 C62.7511569,39.7264911 64.1959766,40.0314993 64.4295965,41.257064 C64.6632164,42.4826287 63.4291685,43.3184895 62.1654205,44.0455459 C61.3229218,44.5302502 59.5636637,44.5110698 56.8876462,43.9880048 C54.4306754,43.4213497 52.5509852,42.9817701 51.2485756,42.669266 C49.2949613,42.2005098 46.8573581,41.7764816 41.6920922,39.6727349 C36.5268262,37.5689881 34.7684646,36.5049727 32.2456084,34.6384883 C35.4638681,34.0560825 35.5510371,32.3938021 36.3889157,30.0302372 C39.4609004,32.3430909 41.0628307,33.2313642 42.5110001,33.8208204 Z" id="Path-23-Copy-2" fill="#F4DAD8" transform="translate(48.351933, 37.212737) scale(-1, 1) rotate(26.000000) translate(-48.351933, -37.212737) "></path>
                        <path d="M43.7130174,52.2705802 L53.6377551,53.1508698 C53.9989212,53.182904 54.3144532,53.4079268 54.4623874,53.7389595 L56.8088132,58.9895603 C57.0341453,59.4937863 56.8080571,60.0852101 56.303831,60.3105422 C56.1479035,60.3802242 55.9767275,60.4088093 55.8066191,60.3935728 L46.0419807,59.5189622 C45.6899442,59.4874306 45.3807011,59.2724068 45.228568,58.9533779 L42.7220429,53.697098 C42.484324,53.1985921 42.6957335,52.6017639 43.1942394,52.3640449 C43.3556941,52.2870532 43.5348445,52.2547769 43.7130174,52.2705802 Z" id="Rectangle-18-Copy-2" fill="#C0B9F1" transform="translate(49.760257, 56.332115) scale(-1, 1) rotate(-35.000000) translate(-49.760257, -56.332115) "></path>
                        <path d="M9.86553109,53.810794 L47.3949889,31.8547571 C47.8716874,31.5758719 48.4842091,31.7362313 48.7630943,32.2129298 C48.8963508,32.4407053 48.9341715,32.7119205 48.868313,32.9674623 L42.2046085,58.8237298 C42.1398239,59.0751045 41.9798276,59.291436 41.7584432,59.4269913 L3.00926102,83.1533901 C2.5382573,83.441789 1.92263982,83.2937585 1.6342409,82.8227548 C1.48813252,82.5841354 1.4486764,82.2952175 1.52545372,82.0261596 L9.40888256,54.3995303 C9.47957727,54.1517883 9.64315952,53.9408891 9.86553109,53.810794 Z" id="Rectangle-19" fill="#C0B9F1" transform="translate(25.193512, 57.509220) scale(-1, 1) translate(-25.193512, -57.509220) "></path>
                        <path d="M28.1153103,47.8855749 L28.3367394,48.008464 C28.4908903,48.0940149 28.5885939,48.2544248 28.5938845,48.4306446 L29.9982889,95.2090201 C30.003859,95.3945508 29.9061939,95.5678993 29.7446215,95.6592615 L29.5646372,95.7610347 C29.4169647,95.844537 29.2295606,95.7925168 29.1460583,95.6448443 C29.1215395,95.6014833 29.107934,95.5528099 29.1064145,95.5030199 L27.6616667,48.1620376 C27.6565196,47.9933786 27.7890721,47.852481 27.9577311,47.8473339 C28.0127431,47.845655 28.067187,47.8588674 28.1153103,47.8855749 Z" id="Rectangle-20-Copy" fill="#A7A1CF" transform="translate(28.830018, 71.824033) scale(-1, 1) rotate(-299.000000) translate(-28.830018, -71.824033) "></path>
                        <path d="M45.3018798,53.5321184 C45.4505449,53.540543 45.6181307,53.5551759 45.8046371,53.5760171 L45.8046297,53.5760834 C46.0682174,53.605538 46.2629271,53.8357082 46.2482806,54.1005317 L44.6036251,83.8375686 C44.5907367,84.0706036 44.3980147,84.2529613 44.1646236,84.2529613 L44.1646236,84.2529613 C43.9441083,84.2529613 43.7653452,84.0741983 43.7653452,83.8536829 C43.7653452,83.8482119 43.7654577,83.8427414 43.7656825,83.837275 C44.27974,71.3378437 44.7918142,61.2361252 45.3018798,53.5321184 Z" id="Rectangle-20" fill="#DCD9F2" transform="translate(45.007200, 68.892540) scale(-1, 1) rotate(13.000000) translate(-45.007200, -68.892540) "></path>
                        <path d="M62.8049694,59.0736631 C63.1961634,58.7178583 63.6637592,58.5797497 63.9328171,58.6405848 C63.2338386,59.3675365 63.2546616,59.8777238 63.1940549,60.4326633 C63.0431431,67.8645827 63.0424871,78.2508796 63.1920869,91.5915541 L63.1920725,91.5915543 C63.1946199,91.8187149 63.0125348,92.00493 62.7853742,92.0074774 C62.7838368,92.0074946 62.7822993,92.0075032 62.7807618,92.0075032 L62.7807618,92.0075032 C62.5505529,92.0075032 62.3635005,91.8217006 62.3619571,91.5914969 C62.2376196,73.048396 62.210803,62.6166882 62.2814885,60.2963737 C62.3081715,59.4204815 62.7771935,59.0989262 62.8049694,59.0736631 Z" id="Rectangle-20-Copy-2" fill="#A7A1CF" transform="translate(63.087936, 75.317101) scale(-1, 1) rotate(-60.000000) translate(-63.087936, -75.317101) "></path>
                        <path d="M20.3446116,19.8631873 L20.624255,19.6162208 C20.7409821,19.5131334 20.9191769,19.5241907 21.0222642,19.6409178 C21.0662544,19.6907285 21.0912386,19.7544755 21.0928087,19.8209118 L22.1627117,65.0923871 C22.1662199,65.2408289 22.1035708,65.3831512 21.9917283,65.4808167 L21.7350701,65.7049412 C21.6228025,65.8029779 21.452317,65.7914415 21.3542803,65.6791738 C21.3128436,65.6317223 21.2893129,65.5712698 21.2877655,65.5082916 L20.1757409,20.25024 C20.1721136,20.1026155 20.2339275,19.9609377 20.3446116,19.8631873 Z" id="Rectangle-20-Copy" fill="#F0EEFF" transform="translate(21.169221, 42.658568) scale(-1, 1) rotate(-299.000000) translate(-21.169221, -42.658568) "></path>
                        <path d="M23.7879265,62.911766 C25.516585,63.1393656 27.0999991,60.1392475 27.0999991,56.9172132 C27.0999991,53.695179 25.7592973,52.5980955 24.6104692,52.5980955 C23.4616411,52.5980955 21.3974704,54.4925032 21.3974704,57.7145374 C21.3974704,60.9365717 22.059268,62.6841663 23.7879265,62.911766 Z" id="Oval-12" fill="#FFFFFF" transform="translate(24.248735, 57.761017) scale(-1, 1) rotate(-330.000000) translate(-24.248735, -57.761017) "></path>
                        <path d="M80.2488484,0.349142282 C81.3970763,0.349142282 95.6524817,1.57957029 100.162533,6.57297553 C104.672584,11.5663808 105.681533,15.5160868 105.652549,22.8837085 C105.633226,27.7954563 104.609854,32.2581449 102.582433,36.2717742 C98.4920448,37.953421 95.5880634,37.953421 93.8704888,36.2717742 C91.294127,33.7493042 95.347864,31.2770603 96.4468507,25.8291946 C97.5458374,20.3813289 85.6577775,10.0648727 84.9320529,9.24674414 C84.2063283,8.42861557 79.1006206,0.349142282 80.2488484,0.349142282 Z" id="Path-16" fill="#4028CC"></path>
                        <path d="M63.790019,39.6305147 C65.4758864,41.801595 76.6639128,48.7140438 79.3630032,50.0578345 C82.0620937,51.4016253 89.0344898,54.5039859 90.3750535,54.8743394 C91.7156173,55.2446929 95.0917282,54.9554102 96.4414861,54.5643435 C97.482796,54.1880279 99.1094444,52.1151229 99.8669054,52.598827 C100.624367,53.0825312 99.8669054,54.0853967 99.8669054,55.1187226 C99.8669054,56.1520484 104.19875,56.5620763 104.336662,58.5158395 C104.474574,60.4696027 103.064548,61.4184846 102.137757,61.6640704 C101.519897,61.8277942 99.7420351,61.6462484 96.8041721,61.1194329 C94.1052819,60.732936 92.1129235,60.4160696 90.827097,60.1688337 C88.8983572,59.7979798 87.2585328,59.2390046 79.3630032,56.2848521 C71.4674737,53.3306996 65.1736692,49.0986691 63.5732256,48.159552 C61.9727821,47.2204349 59.2312739,45.3025196 58.2195432,44.1237997 C60.1487673,45.5715644 63.5828702,41.7223161 63.790019,39.6305147 Z" id="Path-23-Copy-3" fill="#F4DAD8" transform="translate(81.282804, 50.676406) scale(-1, 1) rotate(17.000000) translate(-81.282804, -50.676406) "></path>
                        <path d="M33.5815211,97.9434938 L39.2060351,101.217779 C40.4336123,101.90397 41.2493935,102.637954 41.6533785,103.419732 C42.0573636,104.20151 42.2194823,105.410131 42.1397345,107.045596 L42.1397345,114.95452 C42.1397345,117.163659 40.3488735,118.95452 38.1397345,118.95452 C37.399175,118.95452 36.6731537,118.748933 36.0425416,118.360659 L30.0109665,114.646959 C28.8837136,114.015503 28.194923,113.261908 27.9445945,112.386176 C27.694266,111.510443 27.5691018,110.391453 27.5691018,109.029206 L27.5691018,101.400395 C27.5691018,99.1912564 29.3599628,97.4003954 31.5691018,97.4003954 C32.2761171,97.4003954 32.9705005,97.587791 33.5815211,97.9434938 Z" id="Rectangle-5-Copy-3" fill="#E5E7F1"></path>
                        <path d="M31.2451025,99.1131208 L36.8696165,102.387406 C38.0971937,103.073597 38.9129749,103.807581 39.31696,104.589359 C39.720945,105.371137 39.8830637,106.579758 39.803316,108.215223 L39.803316,116.124147 C39.803316,118.333286 38.012455,120.124147 35.803316,120.124147 C35.0627564,120.124147 34.3367352,119.91856 33.706123,119.530286 L27.6745479,115.816586 C26.547295,115.18513 25.8585044,114.431535 25.6081759,113.555803 C25.3578474,112.68007 25.2326832,111.56108 25.2326832,110.198833 L25.2326832,102.570022 C25.2326832,100.360883 27.0235442,98.5700224 29.2326832,98.5700224 C29.9396985,98.5700224 30.6340819,98.757418 31.2451025,99.1131208 Z" id="Rectangle-5-Copy-4" fill="#3526A5" opacity="0.300000012"></path>
                        <path d="M28.016176,100.757098 C27.5579106,100.49032 27.037123,100.349774 26.5068615,100.349774 C24.8500073,100.349774 23.5068615,101.69292 23.5068615,103.349774 L23.5068615,110.978584 C23.5068615,112.254919 23.6220648,113.284856 23.8438436,114.060712 C24.0135376,114.654358 24.5228058,115.21154 25.4730245,115.744803 L31.5045996,119.458503 C31.9775587,119.749708 32.5220746,119.903899 33.0774943,119.903899 C34.7343485,119.903899 36.0774943,118.560753 36.0774943,116.903899 L36.078681,108.946271 C36.1506211,107.470925 36.0100383,106.422857 35.7027432,105.82819 C35.401903,105.246014 34.7270006,104.638783 33.64069,104.031382 L28.016176,100.757098 Z" id="Rectangle-5-Copy-5" stroke="#C0B9F1" stroke-width="2"></path>
                    </g>
                    <g id="Group-36" transform="translate(75.287051, 30.011415) rotate(-25.000000) translate(-75.287051, -30.011415) translate(54.787051, 6.511415)">
                        <path d="M21.4620033,36.9131039 C21.2354207,39.0949661 21.3273724,41.7155002 21.7378582,44.7747062 C19.6092014,46.4659155 16.9276634,46.4659155 13.693244,44.7747062 L13.693244,37.0610453 C13.6350851,37.0313236 13.5771162,37.0008448 13.5193475,36.9696063 C11.4091974,35.8285404 8.58876161,34.0356328 6.18401273,32.0273015 C4.81923784,31.5452369 5.09538786,25.4008915 5.82352525,21.71706 C5.9392967,21.1313429 4.55566771,21.7219319 5.09725387,20.4259295 C6.23656402,17.6995881 8.52397652,13.7666507 10.1219332,12.8313613 C11.7893573,11.8554124 21.1601101,12.412488 23.9137102,18.4377435 C26.0636508,23.1421089 26.7625053,30.3150171 25.4083603,32.8617934 C24.4404494,34.6821691 23.0486138,36.0538702 21.4620033,36.9131039 Z" id="Combined-Shape" fill="#F4DAD8"></path>
                        <path d="M14.8872596,20.7266944 C18.2712032,21.4607993 22.8589148,21.5663153 21.0025912,28.3842321 C20.5687239,29.9777427 23.460604,34.3107731 26.8522911,34.2198225 C28.5269294,34.1749158 31.1561205,32.7467789 32.0204592,30.1986213 C32.7007149,28.1931592 35.7982711,18.094476 35.3848279,14.714003 C35.14403,12.7451455 33.1787189,9.85953192 30.3012192,8.52970661 C26.6130907,6.82525234 21.2575048,5.86065912 17.8163656,6.34856479 C10.8196064,7.34060791 4.97160036,9.28435742 4.97160036,13.79845 C4.97160036,16.1174538 6.21547945,17.7652502 7.64799723,18.4553314 C9.08051501,19.1454125 11.9030635,20.0793097 14.8872596,20.7266944 Z" id="Oval-5" fill="#000000" transform="translate(20.197126, 20.221638) rotate(30.000000) translate(-20.197126, -20.221638) "></path>
                    </g>
                </g>
                <g id="Group-3-Copy-2" transform="translate(196.333333, 99.931280) scale(-1, 1) translate(-196.333333, -99.931280) translate(139.333333, 5.431280)">
                    <ellipse id="Oval-8-Copy-2" stroke="#C0B9F1" stroke-width="2" cx="112.783062" cy="120.219374" rx="1" ry="1"></ellipse>
                    <ellipse id="Oval-8-Copy-3" stroke="#C0B9F1" stroke-width="2" cx="39.5129755" cy="154.606408" rx="1" ry="1"></ellipse>
                    <rect id="Rectangle-7-Copy" stroke="#C0B9F1" stroke-width="2" x="47.7091447" y="133.336709" width="2.90647901" height="3.23992904" rx="1.4532395"></rect>
                    <g id="Group-31" transform="translate(70.147578, 140.057291) rotate(4.000000) translate(-70.147578, -140.057291) translate(32.647578, 94.557291)">
                        <g id="Group-33" transform="translate(33.175754, 39.481402) rotate(16.000000) translate(-33.175754, -39.481402) translate(8.175754, 6.981402)" fill="#171143">
                            <path d="M28.1654724,0 C26.8297283,12.7372233 26.3665224,20.9259417 26.7758546,24.5661551 C27.3898529,30.0264753 27.7463942,37.4212856 32.4650846,42.6466046 C35.6108782,46.1301506 38.8914915,48.9783534 42.3069246,51.1912128 L39.9094075,54.3860896 C32.0286802,52.4003708 26.421479,49.695554 23.0878041,46.2716392 C18.0872918,41.135767 12.6865981,31.7320887 8.68412287,22.1981949 C6.01580606,15.8422658 3.22903841,8.44286747 0.323819904,0 L28.1654724,0 Z" id="Path-11"></path>
                            <path d="M45.5506128,54.039002 C46.2017462,53.8202763 47.1306994,53.8202763 48.3374725,54.039002 C48.7280583,56.5250861 48.9233512,57.9170831 48.9233512,58.2149929 C48.9233512,58.5129027 45.3604692,59.8283421 38.2347053,62.1613111 C37.669306,61.4139216 38.2581221,60.703931 40.0011536,60.0313394 C42.6157009,59.022452 42.7401239,56.9374455 45.5506128,54.039002 Z" id="Path-12-Copy" transform="translate(43.475167, 58.018134) rotate(-61.000000) translate(-43.475167, -58.018134) "></path>
                        </g>
                        <g id="Group-32" transform="translate(50.197269, 45.464374) rotate(344.000000) translate(-50.197269, -45.464374) translate(37.197269, 1.964374)" fill="#261B72">
                            <path d="M0.487545718,0.106112832 L25.6033312,1.01793757 C19.2506076,11.7399041 15.5423387,20.4632922 14.4785245,27.1881019 C13.4277024,33.8307834 13.8784369,42.3848688 13.4848565,51.5595036 C13.2935827,56.0182295 13.4447037,63.7510403 13.9382195,74.7579359 L10.2123004,74.7579359 C5.93998387,64.5816014 3.06475359,53.3281106 1.58660961,40.9974636 C0.108465625,28.6668166 -0.257889005,15.0363664 0.487545718,0.106112832 Z" id="Path-6"></path>
                            <path d="M11.8585549,75.8942716 C12.5981072,75.6458447 13.6100112,75.7514636 14.894267,76.2111283 C15.3359367,78.6424534 15.5567716,80.0272978 15.5567716,80.3656614 C15.5567716,80.7040251 12.3465109,82.4818151 5.92598967,85.6990316 C5.56596545,85.0744556 5.86920963,84.4241 6.83572222,83.7479648 C8.2854911,82.7337621 9.77908534,79.7204596 11.8585549,75.8942716 Z" id="Path-12" transform="translate(10.668097, 80.731283) rotate(-13.000000) translate(-10.668097, -80.731283) "></path>
                        </g>
                    </g>
                    <g id="Group-2" transform="translate(36.396261, 0.000000)">
                        <path d="M37.4397048,25.2126085 C39.5038893,31.0473397 40.2821935,33.361706 40.7716956,37.0622083 C41.2611976,40.7627105 41.8569833,44.9806634 39.5362092,50.9789047 C37.2154352,56.9771461 30.7001011,62.2936827 28.6411093,66.8507096 C26.5821176,71.4077364 27.4068093,77.4204539 30.4466294,80.7414774 C33.4864494,84.062501 37.1765633,85.0029391 40.7597826,85.0402427 C43.4077065,85.0678093 47.882839,84.7538592 51.9956848,82.4128976 C53.7997631,81.3860471 57.983522,79.1298038 59.9158737,71.4494131 C62.226675,62.2648235 55.4687373,40.1617533 55.0194942,36.6987544 C54.5239185,32.8785986 52.1115877,21.1603403 51.4038077,20.8555407 C50.6960278,20.550741 43.7917199,19.9103594 43.7532501,19.2690424 C43.6981262,18.3500888 35.3755203,19.3778772 37.4397048,25.2126085 Z" id="Combined-Shape-Copy-3" fill="#2D1505" transform="translate(43.950979, 52.007888) scale(-1, 1) rotate(27.000000) translate(-43.950979, -52.007888) "></path>
                        <path d="M32.5596037,37.2752413 C33.4650785,37.7649152 34.7593776,38.545933 36.4425012,39.6182945 C40.9578079,42.4951133 43.0688107,43.5123144 44.7646806,46.0651496 C46.4605505,48.6179848 47.5112456,53.2470444 47.8397105,56.1872238 C48.1681754,59.1274032 49.8209271,70.1183474 49.6624298,71.1194706 C49.5039325,72.1205939 49.8042432,72.6642399 48.8219769,73.2198972 C47.8397105,73.7755546 46.4580726,74.6356745 45.5409778,74.3259896 C44.9295813,74.1195329 44.1942872,73.3997199 43.3350955,72.1665505 C42.2611824,62.9742144 41.4687532,58.105503 40.9578079,57.5604163 C40.1913899,56.7427863 39.2635892,67.0133677 41.1710181,73.5545126 C41.8675829,75.943242 45.1316729,82.2616617 46.8728006,94.7963765 C47.8397105,101.757348 44.7646806,112.327157 19.6503755,98.7020583 C10.3672631,93.6657524 11.152258,91.3382887 13.688089,82.4662965 C14.6750235,79.0133554 17.6981909,70.8034953 17.6394396,69.7586703 C17.3589905,64.7712055 17.2906171,62.0474389 17.1955035,60.3449372 C16.5752212,60.591902 14.693421,60.4264955 13.9507558,59.8301667 C13.0495943,59.106572 12.3887449,58.1526585 12.2877281,57.4102088 C12.1982005,56.7522025 13.4391677,53.1486461 14.3698964,49.8860648 C14.3719723,49.6613052 14.3820681,49.432517 14.4010521,49.1996422 C14.4780393,48.2552486 14.7835288,47.4161816 15.221036,46.6653672 C16.0767456,43.299967 17.1145425,39.213478 18.0920563,37.8637807 C19.2743586,36.2313226 20.6688702,35.2682615 22.3196796,35.1709649 C23.3139851,35.1123619 26.2713518,35.6111823 31.1917799,36.6674261 C31.209233,36.6706029 31.2277556,36.674581 31.2473474,36.6793603 C31.7560849,36.7886739 32.2856825,36.9039108 32.83614,37.025071 C32.7433525,37.1090004 32.6511737,37.1923905 32.5596037,37.2752413 Z" id="Combined-Shape" fill="#ED6201" transform="translate(30.842599, 70.237839) rotate(-10.000000) translate(-30.842599, -70.237839) "></path>
                        <g id="Group" transform="translate(23.613958, 23.925597) rotate(15.000000) translate(-23.613958, -23.925597) translate(4.613958, 4.425597)">
                            <path d="M23.691373,17.4252611 C25.2118501,24.4052042 25.7582832,28.6745229 25.3306723,30.2332172 C24.6892559,32.5712587 22.9144754,33.4348491 22.0558636,33.8199954 C21.1972518,34.2051416 16.9170651,34.2711447 14.5541552,33.3656595 C12.1912452,32.4601744 11.7535701,31.9017436 10.7920981,31.0837834 C9.83062606,30.2658231 7.25994879,26.8497336 7.21728997,24.3629459 C7.17463115,21.8761582 8.39637843,18.4139342 10.4918506,16.3978626 C12.5873228,14.381791 18.7892395,13.5980987 20.9293731,14.8789845 C22.3561288,15.7329083 23.2767955,16.5816672 23.691373,17.4252611 Z" id="Path-19-Copy" fill="#F4DAD8" transform="translate(16.343837, 24.171764) scale(-1, 1) rotate(28.000000) translate(-16.343837, -24.171764) "></path>
                            <path d="M15.7722842,21.6309269 C15.9867914,22.0487881 16.1359448,26.2605881 15.8738425,27.0763926 C15.6726605,26.5839785 15.5332108,26.0921945 15.3953037,25.6173278 C15.4304785,26.1492263 15.4725769,26.5200824 15.5747974,26.7381904 C15.8539118,27.3337368 16.3272288,28.0852581 17.4344874,29.2730897 C17.8765468,29.747317 19.3489306,30.8136036 20.0567105,31.1184033 C20.7644905,31.423203 6.97721088,36.8083769 6.48770881,33.1078746 C5.99820673,29.4073723 4.95002999,35.2810818 5.07776891,24.1021897 C5.20550783,12.9232976 6.32503908,7.43910463 14.8526856,4.48492532 C22.3508382,3.42984982 29.5247401,6.69855305 31.3370442,9.24629272 C33.1493483,11.7940324 32.5636997,13.6162022 31.9520528,14.7011871 C31.3404059,15.786172 30.2171747,16.6216376 27.2831861,16.4401531 C25.3271937,16.3191635 22.9787242,15.7395082 20.2377776,14.7011871 C19.8753617,16.7906932 19.4119394,18.4520986 18.8475106,19.6854031 C18.2003202,21.0995462 16.5883602,21.0792502 15.7722842,21.6309269 Z" id="Combined-Shape-Copy-2" fill="#2D1505" transform="translate(18.810315, 19.341404) scale(-1, 1) rotate(23.000000) translate(-18.810315, -19.341404) "></path>
                            <path d="M26.4479226,25.1996937 C27.42931,24.8349869 26.8251265,23.7759806 26.8251265,22.5842693 C26.8251265,21.392558 25.9006774,20.2890058 24.8512107,20.4208144 C23.801744,20.552623 23.7240943,21.1760451 23.7162641,22.3264838 C23.7125929,22.8658607 24.3405674,23.4542983 24.8512107,24.0563357 C25.4297199,24.7383855 25.9266535,25.3934097 26.4479226,25.1996937 Z" id="Oval-11-Copy" fill="#F4DAD8" transform="translate(25.362678, 22.822138) scale(-1, 1) rotate(22.000000) translate(-25.362678, -22.822138) "></path>
                            <path d="M18.5511404,34.8051368 C19.135792,37.5610043 22.9907631,39.8569388 24.8462984,36.5178598 C24.5053264,33.7637282 24.7131943,32.0386267 25.4699021,31.3425555 C23.4083085,31.1642342 21.6169773,30.6533903 20.0959085,29.8100238 C19.3493904,31.6575454 18.7094304,33.9337919 18.5511404,34.8051368 Z" id="Path-5-Copy" fill="#F4DAD8" transform="translate(22.010521, 33.992545) scale(-1, 1) rotate(13.000000) translate(-22.010521, -33.992545) "></path>
                            <path d="" id="Path-20-Copy" stroke="#979797" transform="translate(19.200339, 23.432969) scale(-1, 1) rotate(-7.000000) translate(-19.200339, -23.432969) "></path>
                        </g>
                    </g>
                    <path d="M13.1586478,78.6575995 L49.8131547,81.8986682 C50.5383481,81.9627914 51.1714173,82.4159126 51.4659798,83.0816829 L60.6718095,103.888701 C61.1187252,104.89882 60.6621588,106.07998 59.6520399,106.526895 C59.353896,106.658806 59.028025,106.715831 58.7028034,106.693006 L22.8153677,104.174273 C22.0885056,104.123259 21.4469031,103.680977 21.1406382,103.019817 L11.1677373,81.490463 C10.7034667,80.4882022 11.1395938,79.2993437 12.1418546,78.835073 C12.4594195,78.6879695 12.8100266,78.6267737 13.1586478,78.6575995 Z" id="Rectangle-18" fill="#F0EEFF" transform="translate(35.912669, 92.673870) scale(-1, 1) rotate(-35.000000) translate(-35.912669, -92.673870) "></path>
                    <path d="M18.3072681,86.1995104 L42.5251808,88.3475549 C43.2432354,88.4112438 43.871456,88.8564243 44.1695162,89.5127923 L49.9392739,102.218561 C50.3959811,103.224291 49.9509105,104.40983 48.9451807,104.866538 C48.6403174,105.004978 48.305576,105.064664 47.9716522,105.040124 L24.2353727,103.295718 C23.5190048,103.243072 22.8858865,102.810309 22.57671,102.161954 L16.3253192,89.052546 C15.8498812,88.0555342 16.2727003,86.8618778 17.2697121,86.3864398 C17.5926214,86.2324564 17.9509222,86.1679037 18.3072681,86.1995104 Z" id="Rectangle-18-Copy" fill="#261B72" transform="translate(33.124416, 95.618596) scale(-1, 1) rotate(-35.000000) translate(-33.124416, -95.618596) "></path>
                    <path d="M36.2605493,68.201963 C37.618429,68.7546681 40.0699853,69.9374199 41.2288729,70.3555071 C42.3877605,70.7735943 45.350379,71.7700589 47.1379639,71.6114099 C48.9255488,71.4527609 50.1854911,69.1271987 50.7655505,69.6640711 C51.3456099,70.2009435 50.7655505,70.3790118 50.7655505,71.2470055 C50.7655505,72.1149992 51.4469807,72.1964973 52.3546308,72.6796119 C53.262281,73.1627264 54.4759296,73.4189333 54.6721703,74.4484077 C54.868411,75.477882 53.8318108,76.1800051 52.7702624,76.7907324 C52.0625635,77.197884 50.5847867,77.1817725 48.336932,76.7423979 C46.2730765,76.2664076 44.6941367,75.8971608 43.6001127,75.6346573 C41.9590767,75.2409021 39.91149,74.8847185 35.5726666,73.1175712 C31.2338432,71.3504239 29.2366169,70.0963281 27.1174176,68.5284812 C29.8207558,68.0392602 30.3707896,67.2656028 31.0746075,65.2802083 C33.6550747,67.2230054 35.044087,67.7068198 36.2605493,68.201963 Z" id="Path-23-Copy-2" fill="#F4DAD8" transform="translate(40.906832, 71.182340) scale(-1, 1) rotate(26.000000) translate(-40.906832, -71.182340) "></path>
                    <path d="M36.9909774,83.8496997 L44.9549496,84.5560763 C45.3161157,84.5881105 45.6316477,84.8131333 45.7795819,85.144166 L47.6009786,89.2199084 C47.8263107,89.7241344 47.6002225,90.3155581 47.0959964,90.5408902 C46.9400689,90.6105722 46.7688929,90.6391573 46.5987845,90.6239209 L38.7589753,89.9217156 C38.4069388,89.890184 38.0976957,89.6751602 37.9455626,89.3561313 L36.000003,85.2762176 C35.762284,84.7777117 35.9736936,84.1808835 36.4721995,83.9431645 C36.6336541,83.8661727 36.8128045,83.8338964 36.9909774,83.8496997 Z" id="Rectangle-18-Copy-2" fill="#C0B9F1" transform="translate(41.795320, 87.236849) scale(-1, 1) rotate(-35.000000) translate(-41.795320, -87.236849) "></path>
                    <path d="M8.32682021,85.0885413 L39.4645117,66.8719098 C39.9412103,66.5930246 40.5537319,66.753384 40.8326171,67.2300825 C40.9658737,67.457858 41.0036943,67.7290732 40.9378358,67.984615 L35.4523671,89.2691343 C35.3875825,89.520509 35.2275862,89.7368405 35.0062018,89.8723958 L2.86214957,109.554427 C2.39114584,109.842826 1.77552836,109.694795 1.48712945,109.223791 C1.34102107,108.985172 1.30156495,108.696254 1.37834227,108.427196 L7.87017168,85.6772777 C7.94086639,85.4295356 8.10444864,85.2186364 8.32682021,85.0885413 Z" id="Rectangle-19" fill="#C0B9F1" transform="translate(21.154717, 88.218314) scale(-1, 1) translate(-21.154717, -88.218314) "></path>
                    <path d="M23.6179096,80.1431726 L23.7641321,80.2243234 C23.918283,80.3098743 24.0159866,80.4702841 24.0212772,80.646504 L25.1981625,119.846597 C25.2037326,120.032128 25.1060675,120.205477 24.9444951,120.296839 L24.8353442,120.358559 C24.7112994,120.428701 24.5538799,120.385004 24.483738,120.260959 C24.4631422,120.224536 24.4517135,120.18365 24.4504372,120.141826 L23.236849,80.3754013 C23.2325255,80.2337278 23.3438696,80.1153737 23.4855431,80.1110501 C23.5317532,80.1096399 23.5774861,80.1207383 23.6179096,80.1431726 Z" id="Rectangle-20-Copy" fill="#A7A1CF" transform="translate(24.217558, 100.251478) scale(-1, 1) rotate(-299.000000) translate(-24.217558, -100.251478) "></path>
                    <path d="M38.057571,84.8864327 C38.161081,84.8922984 38.2755105,84.9017471 38.4008596,84.9147787 L38.4008555,84.9148175 C38.6661548,84.9423987 38.8630844,85.1733852 38.8483551,85.4397074 L37.471037,110.343011 C37.4602108,110.53876 37.2983243,110.691941 37.1022758,110.691941 L37.1022758,110.691941 C36.9170565,110.691941 36.7669066,110.541791 36.7669066,110.356571 C36.7669066,110.351976 36.7670011,110.347381 36.7671899,110.34279 C37.1989729,99.8432552 37.6291156,91.3578034 38.057571,84.8864327 Z" id="Rectangle-20" fill="#DCD9F2" transform="translate(37.808018, 97.789187) scale(-1, 1) rotate(13.000000) translate(-37.808018, -97.789187) "></path>
                    <path d="M52.7561743,89.5417851 C53.0847772,89.2429091 53.4775578,89.1268978 53.7035664,89.1779994 C53.1164244,89.7886388 53.1339158,90.2171961 53.0830061,90.6833453 C52.9562402,96.9261576 52.9556892,105.650647 53.081353,116.856814 L53.0813409,116.856814 C53.0834807,117.047629 52.9305292,117.204049 52.7397143,117.206189 C52.7384229,117.206204 52.7371314,117.206211 52.7358399,117.206211 L52.7358399,117.206211 C52.5424644,117.206211 52.3853404,117.050137 52.384044,116.856766 C52.2796005,101.280561 52.2570745,92.5179262 52.3164504,90.568862 C52.3388641,89.8331126 52.7328426,89.5630061 52.7561743,89.5417851 Z" id="Rectangle-20-Copy-2" fill="#A7A1CF" transform="translate(52.993866, 103.186273) scale(-1, 1) rotate(-60.000000) translate(-52.993866, -103.186273) "></path>
                    <path d="M17.117388,56.580327 L17.3243536,56.3975457 C17.4224043,56.3109523 17.572088,56.3202404 17.6586813,56.4182912 C17.6956331,56.4601322 17.7166198,56.5136797 17.7179387,56.5694861 L18.6157714,94.5600398 C18.6192795,94.7084817 18.5566304,94.850804 18.4447879,94.9484695 L18.2574383,95.1120709 C18.1631335,95.1944217 18.0199257,95.1847311 17.9375748,95.0904263 C17.9027681,95.050567 17.8830022,94.9997869 17.8817024,94.9468852 L16.9485172,56.9673797 C16.9448899,56.8197552 17.0067038,56.6780775 17.117388,56.580327 Z" id="Rectangle-20-Copy" fill="#F0EEFF" transform="translate(17.782139, 75.753117) scale(-1, 1) rotate(-299.000000) translate(-17.782139, -75.753117) "></path>
                    <path d="M19.9818583,92.7657915 C21.4339314,92.9569752 22.7639993,90.436876 22.7639993,87.7303672 C22.7639993,85.0238584 21.6378098,84.1023083 20.6727941,84.1023083 C19.7077785,84.1023083 17.9738751,85.6936108 17.9738751,88.4001196 C17.9738751,91.1066284 18.5297852,92.5746078 19.9818583,92.7657915 Z" id="Oval-12" fill="#FFFFFF" transform="translate(20.368937, 88.439162) scale(-1, 1) rotate(-330.000000) translate(-20.368937, -88.439162) "></path>
                    <path d="M54.885475,73.1627911 C56.3016036,74.9864985 65.8411399,80.6237176 68.1083759,81.7525018 C70.3756119,82.881286 76.2324246,85.4872689 77.3584981,85.7983659 C78.4845717,86.1094628 81.3205049,85.8664653 82.4543015,85.5379693 C83.3290018,85.2218642 84.6953864,83.480624 85.3316537,83.8869355 C85.9679211,84.293247 85.3316537,85.135654 85.3316537,86.0036478 C85.3316537,86.8716415 88.9704028,87.2160649 89.0862489,88.857226 C89.2020949,90.4983871 88.0176732,91.2954478 87.2391691,91.5017399 C86.7201664,91.6392679 85.2267626,91.4867694 82.7589578,91.0442444 C80.49189,90.719587 78.8183089,90.4534193 77.7382146,90.2457411 C76.1180732,89.9342238 74.7406207,89.4646847 68.1083759,86.9831966 C61.4761311,84.5017084 55.528928,80.6927232 53.7037445,79.2988226 C51.878561,77.904922 50.5438272,77.2711033 48.897438,74.5749943 C50.5179862,75.7911167 54.2927004,76.7350104 54.885475,73.1627911 Z" id="Path-23-Copy-3" fill="#F4DAD8" transform="translate(68.995793, 82.356721) scale(-1, 1) rotate(17.000000) translate(-68.995793, -82.356721) "></path>
                    <path d="M29.1704648,122.752459 L32.9330695,124.942842 C33.9642343,125.519243 34.6494905,126.13579 34.988838,126.792483 C35.3281854,127.449176 35.4643651,128.464418 35.397377,129.838209 L35.397377,135.336067 C35.397377,137.545206 33.606516,139.336067 31.397377,139.336067 C30.6568174,139.336067 29.9307962,139.13048 29.300184,138.742206 L25.2092118,136.223354 C24.2623194,135.69293 23.6837353,135.059911 23.4734594,134.324296 C23.2631835,133.58868 23.1580455,132.648729 23.1580455,131.504441 L23.1580455,126.209361 C23.1580455,124.000222 24.9489065,122.209361 27.1580455,122.209361 C27.8650608,122.209361 28.5594442,122.396756 29.1704648,122.752459 Z" id="Rectangle-5-Copy-3" fill="#E5E7F1"></path>
                    <path d="M27.2078732,123.734946 L30.9704778,125.925329 C32.0016427,126.501729 32.6868989,127.118276 33.0262464,127.77497 C33.3655938,128.431663 33.5017735,129.446905 33.4347854,130.820696 L33.4347854,136.318553 C33.4347854,138.527692 31.6439244,140.318553 29.4347854,140.318553 C28.6942258,140.318553 27.9682046,140.112966 27.3375924,139.724692 L23.2466202,137.205841 C22.2997278,136.675417 21.7211437,136.042397 21.5108678,135.306782 C21.3005918,134.571167 21.1954539,133.631216 21.1954539,132.486928 L21.1954539,127.191848 C21.1954539,124.982709 22.9863149,123.191848 25.1954539,123.191848 C25.9024692,123.191848 26.5968526,123.379243 27.2078732,123.734946 Z" id="Rectangle-5-Copy-4" fill="#3526A5" opacity="0.300000012"></path>
                    <path d="M24.4150782,125.254162 C23.9568127,124.987385 23.4360252,124.846839 22.9057637,124.846839 C21.2489094,124.846839 19.9057637,126.189984 19.9057637,127.846839 L19.9057637,133.141919 C19.9057637,134.200294 20.0009406,135.051192 20.1826669,135.686931 C20.3123084,136.14046 20.71137,136.577067 21.4812283,137.009297 L25.5722005,139.528149 C26.0451596,139.819354 26.5896755,139.973545 27.1450952,139.973545 C28.8019495,139.973545 30.1450952,138.630399 30.1450952,136.973545 L30.1462819,131.426983 C30.2054624,130.213312 30.0908185,129.358623 29.8481611,128.889041 C29.6119585,128.431949 29.0675811,127.942156 28.1776828,127.444545 L24.4150782,125.254162 Z" id="Rectangle-5-Copy-5" stroke="#C0B9F1" stroke-width="2"></path>
                </g>
                <g id="Group-8" transform="translate(110.663812, 0.000000)" stroke="#ED6201" stroke-width="2">
                    <ellipse id="Oval" cx="14.9179158" cy="14.93602" rx="14.9179158" ry="14.93602"></ellipse>
                    <path d="M14.1042113,7.06066402 L14.1042113,15.2730465 C14.1042113,16.0581274 14.681898,16.4791461 15.3903059,16.2149862 L20.6138473,14.267167" id="Path-3" stroke-linecap="round" stroke-linejoin="round"></path>
                </g>
            </g>
        </g>
    </g>
</svg>