<?xml version="1.0" encoding="UTF-8" standalone="no"?>
<svg width="300px" height="274px" viewBox="0 0 300 274" version="1.1" xmlns="http://www.w3.org/2000/svg" xmlns:xlink="http://www.w3.org/1999/xlink">
    <!-- Generator: Sketch 48.2 (47327) - http://www.bohemiancoding.com/sketch -->
    <title>STEP1</title>
    <desc>Created with Sketch.</desc>
    <defs>
        <rect id="path-1" x="56.1498829" y="0" width="158.332553" height="134.899717" rx="4"></rect>
        <filter x="-34.7%" y="-25.9%" width="169.5%" height="181.5%" filterUnits="objectBoundingBox" id="filter-2">
            <feOffset dx="0" dy="20" in="SourceAlpha" result="shadowOffsetOuter1"></feOffset>
            <feGaussianBlur stdDeviation="15" in="shadowOffsetOuter1" result="shadowBlurOuter1"></feGaussianBlur>
            <feColorMatrix values="0 0 0 0 0   0 0 0 0 0   0 0 0 0 0  0 0 0 0.153843976 0" type="matrix" in="shadowBlurOuter1"></feColorMatrix>
        </filter>
    </defs>
    <g id="TEST-A-CONTENT" stroke="none" stroke-width="1" fill="none" fill-rule="evenodd" transform="translate(-187.000000, -135.000000)">
        <g id="STEP1" transform="translate(187.000000, 135.000000)">
            <path d="M155.840251,262.046447 C62.3801086,262.046447 91.5650846,180.725709 19.2411436,130.281936 C-9.56499361,110.190522 -6.3874648,68.731504 31.2114069,61.2322794 C66.3694704,54.2198824 92.6128048,40.1442815 100.907173,24.4310802 C113.729037,0.140797108 141.044381,-6.66362123 168.241932,6.84629241 C184.644084,14.993778 204.741775,20.1247165 225.425979,19.5831796 C260.290882,36.9713581 261.999091,69.4365315 272.270869,103.615177 C277.163727,119.895834 296.670355,134.586945 299.461365,151.958057 C303.518245,177.207892 283.695851,183.761111 272.270869,192.995291 C270.140233,194.717366 293.10934,196.455418 289.710822,219.724014 C288.495731,228.043368 263.535986,269.228924 228.256189,273.516976 C216.090885,274.995597 201.046161,272.186166 200.749071,257.691485 C200.551165,248.035906 208.83195,235.645114 213.293059,229.575297 C215.317362,226.821017 211.419978,224.303547 208.83195,225.835921 C189.037111,237.556461 178.450947,262.046447 155.840251,262.046447 Z M76.978168,33.3690934 C60.8952673,42.9074127 52.5597535,37.9193357 49.5330747,33.4320999 C46.506396,28.9448642 50.116917,20.2631846 59.4092873,13.9954017 C68.7016576,7.72761876 79.4285333,6.5246057 83.662249,9.7175576 C87.8959646,12.9105095 93.0610686,23.8307742 76.978168,33.3690934 Z" id="Combined-Shape" fill="#E9EBF6"></path>
            <g id="Group-16" transform="translate(42.000000, 35.357143)">
                <g id="Group-40" transform="translate(0.000000, 40.924633)">
                    <rect id="Placeholder-Copy" fill="#312F3F" x="0" y="0" width="84.9836066" height="113.286503" rx="4"></rect>
                    <g id="Group-39" transform="translate(10.117096, 14.652029)" fill-rule="nonzero">
                        <path d="M15.1430783,15.1249361 L5.61479727,26.8799054 C-0.886448633,21.6218479 -1.88753528,12.0975237 3.37487221,5.60667476 C6.33209938,1.95781425 10.4452048,0 15.1430783,0 L15.1430783,15.1249361 Z" id="Shape" fill="#4028CC"></path>
                        <path d="M15.0936956,15.1572716 L13.7724028,30.2256205 C10.6492553,29.9517791 8.00110539,28.8847072 5.56440281,26.9122409 L15.0936956,15.1572716 Z" id="Shape" fill="#D9D8D7"></path>
                        <path d="M14.9783607,14.9501222 L28.473555,8.08387817 C32.2699953,15.5260985 29.3077096,24.636124 21.8539391,28.4264524 C19.2154005,29.7683761 16.6102482,30.274629 13.6580796,30.0169554 L14.9783607,14.9501222 Z" id="Shape" fill="#999999"></path>
                        <path d="M15.175644,15.1244308 L15.175644,0 C21.0976862,0 25.9812084,2.98850871 28.6708384,8.25919728 L15.175644,15.1244308 Z" id="Shape" fill="#FFFFFF"></path>
                        <g id="Group" transform="translate(49.067916, 1.515727)" fill="#D9D8D7">
                            <rect id="Rectangle-path" x="0.261526932" y="0.0879121752" width="9.78323185" height="2.08058815"></rect>
                            <rect id="Rectangle-path" x="11.6053208" y="0.0879121752" width="4.10804684" height="2.08058815"></rect>
                            <rect id="Rectangle-path" x="0.261526932" y="16.7654581" width="15.4427354" height="2.08210387"></rect>
                            <rect id="Rectangle-path" x="13.27363" y="25.1105466" width="2.43923185" height="2.07957766"></rect>
                            <rect id="Rectangle-path" x="0.261526932" y="25.1105466" width="11.6999157" height="2.07957766"></rect>
                            <rect id="Rectangle-path" x="0.261526932" y="8.42895872" width="2.85757377" height="2.08058815"></rect>
                            <rect id="Rectangle-path" x="5.10508665" y="8.42895872" width="4.35085714" height="2.08058815"></rect>
                            <rect id="Rectangle-path" x="11.3559344" y="8.42895872" width="4.34832787" height="2.08058815"></rect>
                        </g>
                        <path d="M46.7232787,2.6181667 C46.7232787,4.06467565 45.551719,5.23734322 44.1034567,5.23734322 C42.6516534,5.23734322 41.4800937,4.06467565 41.4800937,2.6181667 C41.4800937,1.17165775 42.6516534,6.52278006e-07 44.1034567,6.52278006e-07 C45.551719,-0.00100983249 46.7232787,1.17216299 46.7232787,2.6181667 Z" id="Shape" fill="#FFFFFF"></path>
                        <path d="M46.7232787,11.2082977 C46.7232787,12.653291 45.551719,13.8264638 44.1034567,13.8264638 C42.6516534,13.8264638 41.4800937,12.6537962 41.4800937,11.2082977 C41.4800937,9.76178879 42.6516534,8.58912121 44.1034567,8.58912121 C45.551719,8.58811073 46.7232787,9.76229403 46.7232787,11.2082977 Z" id="Shape" fill="#D9D8D7"></path>
                        <path d="M46.7232787,19.2921767 C46.7232787,20.73717 45.551719,21.9103428 44.1034567,21.9103428 C42.6516534,21.9103428 41.4800937,20.7376752 41.4800937,19.2921767 C41.4800937,17.8456678 42.6516534,16.6730002 44.1034567,16.6730002 C45.551719,16.6714845 46.7232787,17.8456678 46.7232787,19.2921767 Z" id="Shape" fill="#4028CC"></path>
                        <path d="M46.7232787,27.880286 C46.7232787,29.3267949 45.551719,30.4994625 44.1034567,30.4994625 C42.6516534,30.4994625 41.4800937,29.3267949 41.4800937,27.880286 C41.4800937,26.4352928 42.6516534,25.2621199 44.1034567,25.2621199 C45.551719,25.2611095 46.7232787,26.4352928 46.7232787,27.880286 Z" id="Shape" fill="#999999"></path>
                    </g>
                    <g id="bar-chart" transform="translate(12.140515, 51.029481)" fill-rule="nonzero">
                        <rect id="Rectangle-path" fill="#6D6F75" x="1.5175644" y="49.0085114" width="12.1405152" height="2.02096954"></rect>
                        <rect id="Rectangle-path" fill="#6D6F75" x="1.5175644" y="49.0085114" width="12.1405152" height="2.02096954"></rect>
                        <rect id="Rectangle-path" fill="#6D6F75" x="1.5175644" y="46.9875419" width="12.1405152" height="2.02096954"></rect>
                        <rect id="Rectangle-path" fill="#6D6F75" x="1.5175644" y="46.9875419" width="12.1405152" height="2.02096954"></rect>
                        <rect id="Rectangle-path" fill="#6D6F75" x="48.0562061" y="49.0085114" width="12.1405152" height="2.02096954"></rect>
                        <rect id="Rectangle-path" fill="#6D6F75" x="48.0562061" y="49.0085114" width="12.1405152" height="2.02096954"></rect>
                        <rect id="Rectangle-path" fill="#6D6F75" x="48.0562061" y="46.9875419" width="12.1405152" height="2.02096954"></rect>
                        <rect id="Rectangle-path" fill="#6D6F75" x="48.0562061" y="46.9875419" width="12.1405152" height="2.02096954"></rect>
                        <rect id="Rectangle-path" fill="#6D6F75" x="48.0562061" y="44.46133" width="12.1405152" height="2.02096954"></rect>
                        <rect id="Rectangle-path" fill="#6D6F75" x="48.0562061" y="43.9560876" width="12.1405152" height="2.02096954"></rect>
                        <rect id="Rectangle-path" fill="#6D6F75" x="48.0562061" y="42.4403604" width="12.1405152" height="2.02096954"></rect>
                        <rect id="Rectangle-path" fill="#6D6F75" x="48.0562061" y="42.4403604" width="12.1405152" height="2.02096954"></rect>
                        <rect id="Rectangle-path" fill="#6D6F75" x="48.0562061" y="40.4193909" width="12.1405152" height="2.02096954"></rect>
                        <rect id="Rectangle-path" fill="#6D6F75" x="48.0562061" y="40.4193909" width="12.1405152" height="2.02096954"></rect>
                        <rect id="Rectangle-path" fill="#6D6F75" x="48.0562061" y="37.8931789" width="12.1405152" height="2.02096954"></rect>
                        <rect id="Rectangle-path" fill="#6D6F75" x="48.0562061" y="37.8931789" width="12.1405152" height="2.02096954"></rect>
                        <rect id="Rectangle-path" fill="#6D6F75" x="48.0562061" y="35.8722094" width="12.1405152" height="2.02096954"></rect>
                        <rect id="Rectangle-path" fill="#6D6F75" x="48.0562061" y="35.366967" width="12.1405152" height="2.02096954"></rect>
                        <rect id="Rectangle-path" fill="#6D6F75" x="48.0562061" y="32.8407551" width="12.1405152" height="2.02096954"></rect>
                        <rect id="Rectangle-path" fill="#6D6F75" x="48.0562061" y="32.8407551" width="12.1405152" height="2.02096954"></rect>
                        <rect id="Rectangle-path" fill="#6D6F75" x="48.0562061" y="30.8197855" width="12.1405152" height="2.02096954"></rect>
                        <rect id="Rectangle-path" fill="#6D6F75" x="48.0562061" y="30.8197855" width="12.1405152" height="2.02096954"></rect>
                        <rect id="Rectangle-path" fill="#6D6F75" x="48.0562061" y="28.798816" width="12.1405152" height="2.02096954"></rect>
                        <rect id="Rectangle-path" fill="#6D6F75" x="48.0562061" y="28.798816" width="12.1405152" height="2.02096954"></rect>
                        <rect id="Rectangle-path" fill="#6D6F75" x="48.0562061" y="26.7778465" width="12.1405152" height="2.02096954"></rect>
                        <rect id="Rectangle-path" fill="#6D6F75" x="48.0562061" y="26.7778465" width="12.1405152" height="2.02096954"></rect>
                        <rect id="Rectangle-path" fill="#6D6F75" x="48.0562061" y="25.2621193" width="12.1405152" height="2.02096954"></rect>
                        <rect id="Rectangle-path" fill="#6D6F75" x="48.0562061" y="24.2516345" width="12.1405152" height="2.02096954"></rect>
                        <rect id="Rectangle-path" fill="#6D6F75" x="48.0562061" y="22.230665" width="12.1405152" height="2.02096954"></rect>
                        <rect id="Rectangle-path" fill="#6D6F75" x="48.0562061" y="22.230665" width="12.1405152" height="2.02096954"></rect>
                        <rect id="Rectangle-path" fill="#6D6F75" x="48.0562061" y="20.2096954" width="12.1405152" height="2.02096954"></rect>
                        <rect id="Rectangle-path" fill="#6D6F75" x="48.0562061" y="20.2096954" width="12.1405152" height="2.02096954"></rect>
                        <rect id="Rectangle-path" fill="#6D6F75" x="17.1990632" y="49.0085114" width="12.1405152" height="2.02096954"></rect>
                        <rect id="Rectangle-path" fill="#6D6F75" x="17.1990632" y="49.0085114" width="12.1405152" height="2.02096954"></rect>
                        <rect id="Rectangle-path" fill="#6D6F75" x="17.1990632" y="46.9875419" width="12.1405152" height="2.02096954"></rect>
                        <rect id="Rectangle-path" fill="#6D6F75" x="17.1990632" y="46.9875419" width="12.1405152" height="2.02096954"></rect>
                        <rect id="Rectangle-path" fill="#6D6F75" x="17.1990632" y="44.46133" width="12.1405152" height="2.02096954"></rect>
                        <rect id="Rectangle-path" fill="#6D6F75" x="17.1990632" y="43.9560876" width="12.1405152" height="2.02096954"></rect>
                        <rect id="Rectangle-path" fill="#6D6F75" x="17.1990632" y="42.4403604" width="12.1405152" height="2.02096954"></rect>
                        <rect id="Rectangle-path" fill="#6D6F75" x="17.1990632" y="42.4403604" width="12.1405152" height="2.02096954"></rect>
                        <rect id="Rectangle-path" fill="#6D6F75" x="17.1990632" y="40.4193909" width="12.1405152" height="2.02096954"></rect>
                        <rect id="Rectangle-path" fill="#6D6F75" x="17.1990632" y="40.4193909" width="12.1405152" height="2.02096954"></rect>
                        <rect id="Rectangle-path" fill="#6D6F75" x="17.1990632" y="37.8931789" width="12.1405152" height="2.02096954"></rect>
                        <rect id="Rectangle-path" fill="#6D6F75" x="17.1990632" y="37.8931789" width="12.1405152" height="2.02096954"></rect>
                        <rect id="Rectangle-path" fill="#6D6F75" x="33.3864169" y="49.0085114" width="12.1405152" height="2.02096954"></rect>
                        <rect id="Rectangle-path" fill="#6D6F75" x="33.3864169" y="49.0085114" width="12.1405152" height="2.02096954"></rect>
                        <rect id="Rectangle-path" fill="#6D6F75" x="33.3864169" y="46.9875419" width="12.1405152" height="2.02096954"></rect>
                        <rect id="Rectangle-path" fill="#6D6F75" x="33.3864169" y="46.9875419" width="12.1405152" height="2.02096954"></rect>
                        <rect id="Rectangle-path" fill="#6D6F75" x="33.3864169" y="44.46133" width="12.1405152" height="2.02096954"></rect>
                        <rect id="Rectangle-path" fill="#6D6F75" x="33.3864169" y="43.9560876" width="12.1405152" height="2.02096954"></rect>
                        <rect id="Rectangle-path" fill="#6D6F75" x="33.3864169" y="42.4403604" width="12.1405152" height="2.02096954"></rect>
                        <rect id="Rectangle-path" fill="#6D6F75" x="33.3864169" y="42.4403604" width="12.1405152" height="2.02096954"></rect>
                        <rect id="Rectangle-path" fill="#6D6F75" x="33.3864169" y="40.4193909" width="12.1405152" height="2.02096954"></rect>
                        <rect id="Rectangle-path" fill="#6D6F75" x="33.3864169" y="40.4193909" width="12.1405152" height="2.02096954"></rect>
                        <rect id="Rectangle-path" fill="#6D6F75" x="33.3864169" y="37.8931789" width="12.1405152" height="2.02096954"></rect>
                        <rect id="Rectangle-path" fill="#6D6F75" x="33.3864169" y="37.8931789" width="12.1405152" height="2.02096954"></rect>
                        <rect id="Rectangle-path" fill="#6D6F75" x="33.3864169" y="35.8722094" width="12.1405152" height="2.02096954"></rect>
                        <rect id="Rectangle-path" fill="#6D6F75" x="33.3864169" y="35.366967" width="12.1405152" height="2.02096954"></rect>
                        <rect id="Rectangle-path" fill="#6D6F75" x="33.3864169" y="32.8407551" width="12.1405152" height="2.02096954"></rect>
                        <rect id="Rectangle-path" fill="#6D6F75" x="33.3864169" y="32.8407551" width="12.1405152" height="2.02096954"></rect>
                        <rect id="Rectangle-path" fill="#6D6F75" x="33.3864169" y="30.8197855" width="12.1405152" height="2.02096954"></rect>
                        <rect id="Rectangle-path" fill="#6D6F75" x="33.3864169" y="30.8197855" width="12.1405152" height="2.02096954"></rect>
                        <rect id="Rectangle-path" fill="#6D6F75" x="33.3864169" y="28.798816" width="12.1405152" height="2.02096954"></rect>
                        <rect id="Rectangle-path" fill="#6D6F75" x="33.3864169" y="28.798816" width="12.1405152" height="2.02096954"></rect>
                        <g id="Group" fill="#E6E6E6">
                            <path d="M1.58682829,39.3392467 C0.884854707,39.3392467 0.281570023,38.8405298 0.152493864,38.151984 C0.00641199063,37.3635284 0.531358876,36.6039356 1.32114885,36.4576786 C13.7144116,34.1664115 27.1405624,28.1451747 39.1284759,19.5007479 C46.7682233,13.9926594 53.4495176,7.75411857 58.9861321,0.956082264 C59.2654719,0.613890847 59.6791846,0.418511482 60.1210544,0.418511482 C60.4539204,0.418511482 60.7806531,0.533962925 61.0399206,0.743773721 C61.3418417,0.9877204 61.5311348,1.33462978 61.5710007,1.7212256 C61.6122604,2.10726637 61.4990748,2.48636894 61.2531889,2.78748629 C55.554602,9.78228959 48.6868024,16.1976155 40.8404774,21.8547362 C28.5088255,30.7472726 14.6633862,36.9480697 1.85418042,39.3164894 C1.7652489,39.3317535 1.67548103,39.3392467 1.58682829,39.3392467 Z" id="Shape"></path>
                            <path d="M61.114913,12.818163 C60.366104,12.818163 59.7430258,12.2581125 59.6649667,11.5160039 L58.8202567,3.46798374 L50.7364092,4.30750445 C50.6856708,4.31361005 50.6340961,4.31583027 50.5833578,4.31583027 C49.8339912,4.31583027 49.210913,3.75633482 49.1325752,3.01450379 C49.0913154,2.62790797 49.204501,2.24936045 49.4503869,1.94741052 C49.695994,1.64601565 50.0453081,1.45757447 50.4336517,1.41788804 L61.4210158,0.27502976 L62.5690409,11.2143315 C62.652118,12.0116681 62.0689057,12.7274115 61.268522,12.8109473 C61.217226,12.8153877 61.1642574,12.818163 61.114913,12.818163 Z" id="Shape"></path>
                        </g>
                    </g>
                </g>
                <g id="Placeholder">
                    <use fill="black" fill-opacity="1" filter="url(#filter-2)" xlink:href="#path-1"></use>
                    <use fill="#FFFFFF" fill-rule="evenodd" xlink:href="#path-1"></use>
                </g>
                <g id="Group-38" transform="translate(87.512881, 13.136302)" fill-rule="nonzero">
                    <g id="Group" transform="translate(0.000000, 12.320141)" fill="#D9D8D7">
                        <rect id="Rectangle-path" x="0.166932084" y="38.6847772" width="12.105728" height="12.7600908"></rect>
                        <rect id="Rectangle-path" x="20.9553075" y="17.109295" width="12.1094246" height="34.3215428"></rect>
                        <rect id="Rectangle-path" x="41.7377683" y="26.5242925" width="12.105728" height="24.9021147"></rect>
                        <rect id="Rectangle-path" x="62.5209685" y="0.222850757" width="12.1020313" height="51.2042948"></rect>
                        <rect id="Rectangle-path" x="83.3041686" y="7.72974213" width="12.1094246" height="43.696665"></rect>
                    </g>
                    <g id="Group" transform="translate(0.000000, 51.456994)" fill="#9FA1AF">
                        <rect id="Rectangle-path" x="0.166932084" y="9.29078564" width="12.105728" height="3.00615333"></rect>
                        <rect id="Rectangle-path" x="20.9553075" y="4.20151795" width="12.1094246" height="8.08508298"></rect>
                        <rect id="Rectangle-path" x="41.7377683" y="6.43674913" width="12.105728" height="5.86535886"></rect>
                        <rect id="Rectangle-path" x="62.5209685" y="0.220635463" width="12.1020313" height="12.0659655"></rect>
                        <rect id="Rectangle-path" x="83.3041686" y="2.00173147" width="12.1094246" height="10.2952075"></rect>
                    </g>
                    <g id="Group" fill="#4028CC">
                        <rect id="Rectangle-path" x="0.166932084" y="45.8063629" width="12.105728" height="5.20003237"></rect>
                        <rect id="Rectangle-path" x="20.9553075" y="13.2696083" width="12.1094246" height="16.1613048"></rect>
                        <rect id="Rectangle-path" x="41.7377683" y="35.5362621" width="12.105728" height="3.30817168"></rect>
                        <rect id="Rectangle-path" x="62.5209685" y="4.85444657" width="12.1020313" height="7.68337642"></rect>
                        <rect id="Rectangle-path" x="83.3041686" y="0.21931406" width="12.1094246" height="19.8401689"></rect>
                    </g>
                    <rect id="Rectangle-path" fill="#9FA1AF" x="0.233471447" y="69.4125309" width="95.2525758" height="4.72448269"></rect>
                    <g id="Group" transform="translate(0.000000, 87.873310)" fill="#D9D8D7">
                        <rect id="Rectangle-path" x="28.1252935" y="0.39432225" width="67.1899694" height="2.75951732"></rect>
                        <rect id="Rectangle-path" x="0.166932084" y="0.39432225" width="22.715799" height="2.75951732"></rect>
                        <rect id="Rectangle-path" x="0.166932084" y="8.93723256" width="95.1431555" height="2.75582516"></rect>
                        <rect id="Rectangle-path" x="0.166932084" y="17.4616821" width="47.5719474" height="2.75582516"></rect>
                    </g>
                </g>
                <g id="Group-2" transform="translate(135.063232, 112.669052)">
                    <path d="M60.7807673,109.162716 C64.4774494,110.440133 47.1158327,116.084562 48.0078968,119.28129 C48.8058285,122.140692 63.991714,118.47193 65.6735167,117.857419 C74.6890366,114.563255 80.1063227,111.918711 80.1063227,109.808619 C80.1063227,105.113385 64.6727271,102.407851 40.4767724,103.495705 C16.2808178,104.583559 2.69871597,103.746165 1.12807115,106.509655 C-0.468486793,109.318737 4.65241628,109.743678 18.1217428,110.501653 C31.5910692,111.259628 57.7549881,108.117134 60.7807673,109.162716 Z" id="Oval-6" fill="#D5DBF0" transform="translate(40.476240, 111.807314) rotate(-8.000000) translate(-40.476240, -111.807314) "></path>
                    <g id="Group" transform="translate(13.727736, 0.000000)">
                        <path d="M41.4539411,111.064669 C41.4539411,111.846644 41.4539411,113.003481 41.4539411,114.535182 C46.5869606,114.717066 49.1577718,114.717066 49.1663747,114.535182 C49.1792789,114.262355 46.0435488,110.007416 41.4539411,111.064669 Z" id="Path-3" fill="#4028CC" transform="translate(45.310178, 112.783916) rotate(18.000000) translate(-45.310178, -112.783916) "></path>
                        <path d="M48.2553748,102.020498 C48.2553748,102.740158 48.2553748,103.804809 48.2553748,105.21445 C52.97935,105.38184 55.3452963,105.38184 55.3532136,105.21445 C55.3650895,104.963364 52.479242,101.047497 48.2553748,102.020498 Z" id="Path-3-Copy" fill="#4028CC" transform="translate(51.804312, 103.602741) rotate(17.000000) translate(-51.804312, -103.602741) "></path>
                        <path d="M47.6627584,55.053085 C48.9218025,56.0525061 56.6581563,67.4491314 57.066179,72.9248403 C57.4742018,78.4005493 50.1454637,91.4420355 46.2405401,101.607051 C45.6591158,101.691946 44.8408357,101.000554 43.7857001,99.5328761 C46.4353653,91.7783131 48.1946985,84.7243187 49.0636997,78.3708927 C50.3672015,68.8407537 41.3620233,62.3927103 39.818396,59.1091535 C38.2747688,55.8255968 46.4037143,54.053664 47.6627584,55.053085 Z" id="Path-4-Copy" fill="#171143" transform="translate(48.353381, 78.194453) rotate(-14.000000) translate(-48.353381, -78.194453) "></path>
                        <path d="M42.6300843,60.3474198 C46.3310439,64.7311844 50.7886736,71.3752835 51.1812269,76.6433903 C51.5737801,81.9114971 42.70082,100.051925 38.0448887,110.159698 C37.4855081,110.241374 36.7264306,109.67412 35.7676563,108.457936 C39.5571631,93.6906138 41.2218697,84.0761831 40.7617759,79.6146436 C40.0716352,72.9223344 33.9693195,70.0406489 32.4842162,66.8815826 C30.999113,63.7225163 38.9291247,55.9636552 42.6300843,60.3474198 Z" id="Path-4" fill="#261B72" transform="translate(41.747507, 84.602215) rotate(-15.000000) translate(-41.747507, -84.602215) "></path>
                        <path d="M25.5394552,19.6159417 C30.7039906,19.98179 33.7103169,20.2731665 34.5584342,20.4900712 C35.8306102,20.8154282 36.7717927,21.7756139 37.4461078,23.2245165 C38.1204229,24.673419 38.256806,29.2505907 38.4480611,32.1310058 C38.6393161,35.0114209 39.2003107,38.7476325 39.0090556,39.3100024 C38.8178005,39.8723723 38.1580737,40.5146016 37.3459079,40.9412931 C36.5337421,41.3679847 34.5101997,41.0473784 34.6138441,40.6539037 C33.3906614,36.5039405 33.3507169,30.33864 32.8135539,29.4637691 C32.4554453,28.8805219 30.0307457,25.5979128 25.5394552,19.6159417 Z" id="Path-22" fill="#ED6201" transform="translate(32.293847, 30.379911) rotate(-11.000000) translate(-32.293847, -30.379911) "></path>
                        <path d="M40.5069703,47.1001934 C42.3163093,47.8603488 46.9425883,49.8628773 47.8368706,50.1094498 C48.731153,50.3560223 49.884494,50.7208624 51.3041221,50.5951187 C52.7237502,50.469375 53.7243457,48.6261563 54.1850056,49.0516763 C54.6456655,49.4771963 54.1850056,49.6183316 54.1850056,50.3062952 C54.1850056,50.9942589 54.7261701,51.0588535 55.4469894,51.4417656 C56.1678086,51.8246776 57.1316396,52.0277448 57.2874861,52.8436965 C57.4433326,53.6596482 56.6201063,54.2161443 55.7770673,54.7002011 C55.2150412,55.0229056 54.0414503,55.0101357 52.2562944,54.6618915 C50.6172633,54.2846262 49.3633328,53.9919646 48.4945028,53.7839068 C47.191258,53.4718201 43.9422398,52.7887212 40.166618,51.4193387 C36.3909962,50.0499561 34.6004452,49.1232008 32.9174624,47.8805401 C34.2129219,46.7547822 34.8991433,45.3617822 34.2162256,43.7505057 C36.2655289,45.2903483 39.666075,46.7469091 40.5069703,47.1001934 Z" id="Path-23-Copy" fill="#F4DAD8" transform="translate(45.112034, 49.341761) rotate(41.000000) translate(-45.112034, -49.341761) "></path>
                        <path d="M32.5870161,7.6430687 C33.794518,13.1753059 34.2284732,16.5591277 33.8888817,17.7945342 C33.3794946,19.6476439 31.9700353,20.3321175 31.2881603,20.6373808 C30.6062853,20.9426441 27.207133,20.9949576 25.3306048,20.2772785 C23.4540767,19.5595995 23.1064927,19.1169925 22.3429302,18.4686849 C21.5793678,17.8203773 19.5378392,15.1128169 19.5039613,13.1418124 C19.4700834,11.1708078 20.440346,8.42668164 22.1044858,6.82876226 C23.7686256,5.23084287 28.6939387,4.60969579 30.3935468,5.62491377 C31.5266188,6.30172577 32.2577753,6.97444407 32.5870161,7.6430687 Z" id="Path-19" fill="#F4DAD8"></path>
                        <path d="M21.0454664,12.2565941 C21.2157828,12.587291 21.3336956,15.9260543 21.1254192,16.5727525 C20.9658233,16.1827482 20.8551872,15.7932344 20.7458036,15.4171028 C20.7737286,15.8383035 20.8071695,16.1320094 20.8883037,16.3047834 C21.1099651,16.7768079 21.4858545,17.3724566 22.3651947,18.3139208 C22.7162605,18.6897888 23.8855686,19.5349176 24.447659,19.776499 C25.0097494,20.0180803 25.294057,21.9655205 25.6876234,24.99334 C26.0443941,27.7380804 26.4266008,37.6482578 24.5914552,44.9278772 C23.0568592,51.0152826 19.4430756,54.779146 18.0103491,55.5930181 C14.7440922,57.4484422 11.7691633,57.4702912 9.66628853,57.4484422 C6.82063971,57.4188757 3.9728783,55.5930181 1.92330896,53.460446 C-0.126260381,51.3278739 -0.396089503,47.2885774 0.449935486,43.7523979 C1.29596047,40.2162184 6.49445695,34.3975595 8.67295217,31.7830368 C10.8514474,29.168514 13.2019484,25.5595777 13.2019484,22.6735685 C13.2019484,19.7875593 12.9852232,18.6024573 12.5519854,14.2155141 C12.1187476,9.8285709 13.2247337,7.7644608 13.5834318,6.36834014 C13.94213,4.97221949 16.2085879,3.19633587 17.2373858,2.11756694 C18.2661836,1.03879802 20.950366,0.501683057 22.2020259,0.501683057 C23.4536858,0.501683057 26.3486222,0.00865996111 27.2907725,0.000123591717 C28.2329228,-0.00841277768 31.9667877,0.421555384 33.4060468,2.44086989 C34.8453059,4.46018439 34.3802073,5.90441903 33.8944619,6.76436787 C33.4087165,7.6243167 32.5166914,8.28649885 30.1866355,8.14265598 C28.633265,8.04676073 26.7682048,7.58733136 24.5914552,6.76436787 C24.303639,8.42049074 23.9356076,9.73730499 23.487361,10.7148106 C22.9734747,11.8354588 21.6936646,11.819566 21.0454664,12.2565941 Z" id="Combined-Shape" fill="#2D1505"></path>
                        <path d="M19.4033706,23.5514205 C15.8174955,25.83156 14.1410219,26.6377841 12.7942301,28.6611372 C11.4474384,30.6844904 10.6130185,34.3534395 10.3521649,36.683798 C10.0913113,39.0141566 8.77876228,47.7254755 8.90463449,48.5189564 C9.0305067,49.3124373 8.79201199,49.7433259 9.57208845,50.1837347 C10.3521649,50.6241435 11.4494062,51.3058665 12.177726,51.0604131 C12.6632726,50.8967775 13.2472136,50.3262605 13.9295492,49.348862 C14.7824078,42.0631029 15.4117232,38.2042081 15.8174955,37.7721775 C16.4261539,37.1241316 17.6349489,43.8127083 17.9057398,45.7386689 C18.1765306,47.6646296 17.9057398,48.8999495 17.3322989,50.6576823 C16.758858,52.4154152 14.7913651,59.8390423 17.9057398,63.8334784 C24.2429631,71.9614775 29.4667271,73.9597919 31.9139902,73.7891022 C35.1870009,73.5608189 36.5981099,68.7408521 36.9078039,65.7894615 C37.6244022,58.9602647 43.2075038,56.1266142 41.7612085,55.1962481 C39.537228,53.7656163 38.0646801,52.6550603 36.4497367,50.1837347 C34.8347933,47.7124092 34.0592176,46.167674 34.0592176,45.2606336 C34.0592176,44.3535933 34.5486132,38.7913189 35.1870835,37.3318439 C35.8255537,35.8723689 37.129442,33.8589448 36.9078039,31.1455066 C36.6861658,28.4320683 34.0798237,26.8156712 32.7390022,25.6516447 C32.124878,25.1184963 28.1650504,21.2069694 28.6850353,21.2069694 C27.8253786,21.2069694 26.1343822,21.2069694 23.612046,21.2069694 C23.1968459,21.2498438 21.7939541,22.0313275 19.4033706,23.5514205 Z" id="Path-21" fill="#ED6201"></path>
                        <path d="M20.6460097,17.4781139 C21.425388,17.1890507 20.9455698,16.3496923 20.9455698,15.4051531 C20.9455698,14.4606139 20.2114095,13.5859489 19.3779652,13.6904191 C18.5445209,13.7948894 18.4828546,14.2890079 18.4766362,15.2008347 C18.4737207,15.6283398 18.9724328,16.0947299 19.3779652,16.5718991 C19.837394,17.1124853 20.2320386,17.6316513 20.6460097,17.4781139 Z" id="Oval-11" fill="#F4DAD8"></path>
                        <path d="M22.6590175,23.4558094 C23.1233244,25.6400841 26.1847875,27.4598202 27.658379,24.8132976 C27.3875928,22.6303988 27.5526731,21.2630996 28.1536201,20.7114001 C26.5163853,20.5700643 25.093782,20.1651742 23.8858103,19.4967299 C23.2929556,20.9610581 22.7847251,22.7651897 22.6590175,23.4558094 Z" id="Path-5" fill="#F4DAD8"></path>
                        <g id="Group-28" transform="translate(28.057095, 46.518513)">
                            <path d="M4.79794048,6.32950302 L21.2789729,7.78842472 C22.0009145,7.8523319 22.6317902,8.30180984 22.9279818,8.96328875 L26.7156657,17.4222477 C27.1670733,18.4303672 26.7157691,19.6135477 25.7076496,20.0649553 C25.3955499,20.2047047 25.0528307,20.2620971 24.7122296,20.23165 L8.48943507,18.7814589 C7.7857726,18.7185569 7.1674965,18.2890885 6.8629223,17.6516467 L2.81700049,9.1839572 C2.34079604,8.18731128 2.76269721,6.99333014 3.75934313,6.51712568 C4.0824983,6.36271986 4.44118691,6.29792275 4.79794048,6.32950302 Z" id="Rectangle-18" fill="#F0EEFF" transform="translate(14.755961, 13.280653) rotate(-35.000000) translate(-14.755961, -13.280653) "></path>
                            <path d="M10.0376729,10.3738017 L19.5091649,11.2122301 C20.2311066,11.2761373 20.8619823,11.7256152 21.1581739,12.3870942 L23.0689315,16.6543509 C23.5203391,17.6624705 23.0690348,18.8456509 22.0609153,19.2970585 C21.7488156,19.436808 21.4060964,19.4942003 21.0654953,19.4637533 L11.7237724,18.6286762 C11.0201099,18.5657742 10.4018338,18.1363058 10.0972596,17.498864 L8.0567329,13.2282559 C7.58052844,12.23161 8.00242961,11.0376289 8.99907553,10.5614244 C9.3222307,10.4070186 9.68091932,10.3422215 10.0376729,10.3738017 Z" id="Rectangle-18-Copy" fill="#313D74" transform="translate(15.552461, 14.918854) rotate(-35.000000) translate(-15.552461, -14.918854) "></path>
                            <path d="M9.67064083,9.17978536 L12.4598531,9.42668993 C12.8208239,9.45864352 13.1362617,9.68338249 13.2843576,10.0141219 L13.719195,10.9852356 C13.9376835,11.4731818 13.719245,12.0458604 13.2312988,12.264349 C13.0802375,12.33199 12.9143558,12.3597688 12.7494993,12.3450319 L10.0143957,12.100535 C9.66256441,12.0690841 9.35342637,11.8543499 9.20113926,11.535629 L8.72593268,10.5410715 C8.49883129,10.0657721 8.7000355,9.49636379 9.17533487,9.2692624 C9.32944722,9.19562643 9.50050543,9.16472476 9.67064083,9.17978536 Z" id="Rectangle-18-Copy-2" fill="#C0B9F1" transform="translate(11.218241, 10.762473) rotate(-35.000000) translate(-11.218241, -10.762473) "></path>
                            <path d="M14.375572,10.0782277 L29.787304,1.47789822 C30.2695787,1.20877072 30.8787105,1.38156062 31.147838,1.86383527 C31.2728381,2.08783473 31.3069787,2.35130418 31.2432005,2.59976572 L28.8596556,11.8853636 C28.7926168,12.1465274 28.6229551,12.3695528 28.3891521,12.5038544 L13.2617495,21.1933694 C12.7828508,21.4684594 12.1716222,21.3032398 11.8965322,20.8243412 C11.7719577,20.607472 11.7331704,20.3517946 11.7878203,20.1077363 L13.8870358,10.7329529 C13.9492497,10.4551152 14.1269461,10.2169704 14.375572,10.0782277 Z" id="Rectangle-19" fill="#C0B9F1"></path>
                            <rect id="Rectangle-20" fill="#D4F2FF" transform="translate(13.103808, 16.112719) rotate(13.000000) translate(-13.103808, -16.112719) " x="12.6038082" y="10.2229041" width="1" height="11.7796308" rx="0.5"></rect>
                            <path d="M5.63549337,11.7965589 C5.79636119,11.6571607 5.98864724,11.6030521 6.09928993,11.6268862 C5.8118541,11.9116935 5.81513448,12.1408886 5.79021162,12.3583045 C5.7281938,15.2681016 5.73793381,19.3015581 5.81943166,24.4586739 L5.81944638,24.4586736 C5.82091589,24.5516628 5.74672457,24.6282366 5.65373545,24.6297061 C5.65284859,24.6297201 5.65196164,24.6297272 5.65107467,24.6297272 L5.65107467,24.6297272 C5.5563005,24.6297272 5.47920881,24.5533956 5.47826966,24.4586261 C5.40700637,17.2648041 5.38588901,13.213565 5.41494362,12.3049085 C5.42591627,11.9617489 5.62407129,11.8064566 5.63549337,11.7965589 Z" id="Rectangle-20-Copy-2" fill="#C6D2EA" transform="translate(5.902324, 18.125587) rotate(-60.000000) translate(-5.902324, -18.125587) "></path>
                            <path d="M22.607283,-4.08440631 L22.6213728,-4.09663846 C22.6683703,-4.13743955 22.7395451,-4.13241638 22.7803462,-4.08541891 C22.798165,-4.06489398 22.8079651,-4.03862036 22.8079404,-4.01143981 L22.790189,15.5629608 C22.7900993,15.6618609 22.727093,15.7497441 22.6334559,15.781577 L22.6334559,15.781577 C22.571376,15.8026817 22.5039415,15.7694647 22.4828367,15.7073848 C22.4786806,15.6951594 22.4765466,15.6823378 22.476519,15.6694253 L22.4350702,-3.70577036 C22.4347595,-3.85100356 22.4976124,-3.98919527 22.607283,-4.08440631 Z" id="Rectangle-20-Copy" fill="#F2F6FB" transform="translate(22.935069, 5.831846) rotate(-299.000000) translate(-22.935069, -5.831846) "></path>
                            <path d="M21.5125909,13.4681258 C22.2234542,13.561535 22.8745897,12.3302567 22.8745897,11.0079019 C22.8745897,9.68554706 22.3232629,9.2352931 21.850839,9.2352931 C21.378415,9.2352931 20.5295816,10.0127768 20.5295816,11.3351317 C20.5295816,12.6574865 20.8017277,13.3747167 21.5125909,13.4681258 Z" id="Oval-12" fill="#FFFFFF" transform="translate(21.702086, 11.354207) rotate(-330.000000) translate(-21.702086, -11.354207) "></path>
                        </g>
                        <path d="M13.8855609,49.2548966 C15.0101933,50.7003499 20.0829135,53.1222413 21.8834612,54.016905 C23.6840089,54.9115688 28.3352543,56.9770463 29.2295366,57.2236188 C30.123819,57.4701913 32.3760032,57.2775938 33.2764189,57.017231 C33.9710707,56.766689 35.0561985,55.3865984 35.5614964,55.7086371 C36.0667944,56.0306758 35.5614964,56.6983597 35.5614964,57.3863233 C35.5614964,58.074287 38.4512447,58.3472737 38.543245,59.6480426 C38.6352453,60.9488114 37.6946252,61.5805543 37.0763685,61.7440594 C36.6641974,61.8530629 35.4781961,61.732194 33.5183647,61.3814528 C31.7179505,61.1241324 30.3888597,60.9131704 29.5310922,60.7485666 C28.244441,60.5016609 27.1505235,60.1295086 21.8834612,58.1627045 C16.6163988,56.1959003 11.3558157,52.3739089 10.368257,51.638213 C9.70988455,51.1477491 9.29165807,50.4787059 9.11357757,49.6310836 C11.1040877,51.3346456 12.6947488,51.2092499 13.8855609,49.2548966 Z" id="Path-23" fill="#F4DAD8"></path>
                        <path d="" id="Path-20" stroke="#979797"></path>
                    </g>
                </g>
            </g>
        </g>
    </g>
</svg>