<?xml version="1.0" encoding="UTF-8" standalone="no"?>
<svg width="188px" height="146px" viewBox="0 0 188 146" version="1.1" xmlns="http://www.w3.org/2000/svg" xmlns:xlink="http://www.w3.org/1999/xlink">
    <!-- Generator: Sketch 3.8.3 (29802) - http://www.bohemiancoding.com/sketch -->
    <title>Venture_due</title>
    <desc>Created with Sketch.</desc>
    <defs>
        <path d="M132.736842,41.7021277 L158,41.7021277 L132.910877,139.328766 C132.882807,139.427064 132.736842,139.410213 132.736842,139.306298 L132.736842,41.7021277" id="path-1"></path>
        <mask id="mask-2" maskContentUnits="userSpaceOnUse" maskUnits="objectBoundingBox" x="0" y="0" width="25.2631579" height="97.6919476" fill="white">
            <use xlink:href="#path-1"></use>
        </mask>
        <radialGradient cx="88.0943007%" cy="17.3836226%" fx="88.0943007%" fy="17.3836226%" r="108.353174%" id="radialGradient-3">
            <stop stop-color="#2C98E3" offset="0%"></stop>
            <stop stop-color="#2CBAED" offset="100%"></stop>
        </radialGradient>
        <circle id="path-4" cx="36" cy="36" r="36"></circle>
        <filter x="-50%" y="-50%" width="200%" height="200%" filterUnits="objectBoundingBox" id="filter-5">
            <feOffset dx="0" dy="2" in="SourceAlpha" result="shadowOffsetOuter1"></feOffset>
            <feGaussianBlur stdDeviation="2" in="shadowOffsetOuter1" result="shadowBlurOuter1"></feGaussianBlur>
            <feComposite in="shadowBlurOuter1" in2="SourceAlpha" operator="out" result="shadowBlurOuter1"></feComposite>
            <feColorMatrix values="0 0 0 0 0   0 0 0 0 0   0 0 0 0 0  0 0 0 0.100000001 0" type="matrix" in="shadowBlurOuter1"></feColorMatrix>
        </filter>
        <mask id="mask-6" maskContentUnits="userSpaceOnUse" maskUnits="objectBoundingBox" x="0" y="0" width="72" height="72" fill="white">
            <use xlink:href="#path-4"></use>
        </mask>
        <polyline id="path-7" points="64.5614035 30.4680851 56.1403509 8 0 8 0 140 134.736842 140 134.736842 30.4680851 64.5614035 30.4680851"></polyline>
        <filter x="-50%" y="-50%" width="200%" height="200%" filterUnits="objectBoundingBox" id="filter-8">
            <feOffset dx="-4" dy="4" in="SourceAlpha" result="shadowOffsetOuter1"></feOffset>
            <feComposite in="shadowOffsetOuter1" in2="SourceAlpha" operator="out" result="shadowOffsetOuter1"></feComposite>
            <feColorMatrix values="0 0 0 0 0   0 0 0 0 0   0 0 0 0 0  0 0 0 0.06 0" type="matrix" in="shadowOffsetOuter1"></feColorMatrix>
        </filter>
        <mask id="mask-9" maskContentUnits="userSpaceOnUse" maskUnits="objectBoundingBox" x="0" y="0" width="134.736842" height="132" fill="white">
            <use xlink:href="#path-7"></use>
        </mask>
    </defs>
    <g id="Home" stroke="none" stroke-width="1" fill="none" fill-rule="evenodd">
        <g id="Home-Copy" transform="translate(-1044.000000, -3989.000000)">
            <g id="Venture_due" transform="translate(1048.000000, 3991.000000)">
                <g id="Icons">
                    <g id="132---Record-(Flat)">
                        <use id="Fill-513" stroke-opacity="0.5" stroke="#C4C4C4" mask="url(#mask-2)" stroke-width="4" fill="#EAEAEA" xlink:href="#path-1"></use>
                        <g id="Oval-38-Copy-+-Shape-Copy-5-Copy-Copy-Copy-Copy-Copy" transform="translate(108.000000, 0.000000)">
                            <g id="Oval-38-Copy">
                                <use fill="black" fill-opacity="1" filter="url(#filter-5)" xlink:href="#path-4"></use>
                                <use stroke="#FFFFFF" mask="url(#mask-6)" stroke-width="8" fill="url(#radialGradient-3)" fill-rule="evenodd" xlink:href="#path-4"></use>
                            </g>
                            <path d="M32.973572,30.9786096 C33.144075,31.315508 33.3316283,31.6524064 33.6896846,31.9893048 C34.0477408,32.3262032 34.4057971,32.6631016 34.9343564,32.8235294 C35.4629156,33.1604278 36.1790281,33.3208556 36.8951407,33.657754 C38.1398124,34.1550802 39.4015345,34.6684492 40.4757033,35.1657754 C41.5498721,35.6631016 42.4364876,36.3368984 43.1526002,37.0106952 C43.8687127,37.684492 44.5848252,38.5187166 44.9428815,39.368984 C45.3009378,40.2032086 45.658994,41.3903743 45.658994,42.5614973 C45.658994,43.7326203 45.488491,44.7433155 45.1304348,45.5935829 C44.7723785,46.4278075 44.2438193,47.2780749 43.5277067,47.9518717 C42.8115942,48.6256684 41.9249787,49.1229947 41.0213129,49.459893 C39.9471441,49.7967914 38.8729753,50.1336898 37.7988065,50.2941176 L37.7988065,54 L34.5763001,54 L34.5763001,50.2941176 C33.5021313,50.1336898 32.4279625,49.9572193 31.3537937,49.6203209 C30.2796249,49.2834225 29.3930094,48.7860963 28.6768968,47.9358289 C27.7902813,47.2620321 27.2446718,46.2513369 26.7161125,45.2406417 C26.1875533,44.2299465 26,42.8823529 26,41.3743316 L31.8994032,41.3743316 C31.8994032,42.2085561 32.0699062,43.0588235 32.2574595,43.5561497 C32.4279625,44.2299465 32.7860188,44.5668449 33.3316283,45.0641711 C33.6896846,45.4010695 34.2182438,45.7379679 34.7638534,45.8983957 C35.2924126,46.0588235 35.8380222,46.0588235 36.3665814,46.0588235 C37.0826939,46.0588235 37.6112532,46.0588235 37.9693095,45.8983957 C38.4978687,45.7379679 38.855925,45.5614973 39.2139812,45.2245989 C39.5720375,44.8877005 39.7425405,44.5508021 39.9300938,44.2139037 C40.1005968,43.8770053 40.1005968,43.3796791 40.1005968,42.8663102 C40.1005968,42.3529412 40.1005968,41.855615 39.9300938,41.5187166 C39.7595908,41.1818182 39.5720375,40.684492 39.2139812,40.3475936 C38.855925,40.0106952 38.4978687,39.6737968 37.9693095,39.513369 C37.4407502,39.1764706 36.7246377,39.0160428 36.0085251,38.6791444 C34.7638534,38.1818182 33.5021313,37.6684492 32.4279625,37.171123 C31.3537937,36.6737968 30.4671782,36 29.7510656,35.3262032 C29.0349531,34.6524064 28.3188406,33.8181818 27.9607843,32.9679144 C27.602728,32.1176471 27.2446718,30.9465241 27.2446718,29.7754011 C27.2446718,28.7647059 27.4151748,27.7540107 27.773231,26.9197861 C28.1312873,26.0855615 28.6598465,25.2352941 29.3759591,24.5614973 C30.0920716,23.8877005 30.9786871,23.3903743 31.8823529,22.8770053 C32.7689685,22.540107 34.0306905,22.2032086 35.1048593,22.0427807 L35.1048593,18 L38.3273657,18 L38.3273657,22.0427807 C39.4015345,22.2032086 40.4757033,22.540107 41.5498721,23.0534759 C42.4364876,23.5508021 43.3401535,24.0641711 43.8687127,24.8983957 C44.5848252,25.5721925 45.1133845,26.5828877 45.4714408,27.5935829 C45.829497,28.6042781 46,29.7754011 46,30.9625668 L40.1005968,30.9625668 C40.1005968,29.4545455 39.7425405,28.2673797 39.026428,27.5935829 C38.3103154,26.9197861 37.4236999,26.4224599 36.3495311,26.4224599 C35.8209719,26.4224599 35.2753623,26.5828877 34.7468031,26.7593583 C34.3887468,26.9197861 34.0306905,27.0962567 33.6726343,27.4331551 C33.314578,27.7700535 33.144075,28.1069519 33.144075,28.4438503 C32.973572,28.7807487 32.973572,29.2780749 32.973572,29.7914439 C32.8030691,30.144385 32.973572,30.6417112 32.973572,30.9786096 L32.973572,30.9786096 Z" id="Shape" fill="#FFFFFF"></path>
                        </g>
                        <g id="Fill-512">
                            <use fill="black" fill-opacity="1" filter="url(#filter-8)" xlink:href="#path-7"></use>
                            <use stroke-opacity="0.5" stroke="#C4C4C4" mask="url(#mask-9)" stroke-width="4" stroke-linecap="round" stroke-linejoin="round" fill="#FAFAFA" fill-rule="evenodd" xlink:href="#path-7"></use>
                        </g>
                        <polygon id="Fill-514" fill="#1FDFC5" points="16.8421053 86.6382979 78.5964912 86.6382979 78.5964912 123.148936 16.8421053 123.148936"></polygon>
                        <path d="M53.3333333,114.723404 L28.0701754,114.723404 C26.5178947,114.723404 25.2631579,113.468 25.2631579,111.914894 C25.2631579,110.361787 26.5178947,109.106383 28.0701754,109.106383 L53.3333333,109.106383 C54.885614,109.106383 56.1403509,110.361787 56.1403509,111.914894 C56.1403509,113.468 54.885614,114.723404 53.3333333,114.723404" id="Fill-515" fill="#17C7AF"></path>
                        <path d="M39.2982456,100.680851 L28.0701754,100.680851 C26.5178947,100.680851 25.2631579,99.4254468 25.2631579,97.8723404 C25.2631579,96.319234 26.5178947,95.0638298 28.0701754,95.0638298 L39.2982456,95.0638298 C40.8505263,95.0638298 42.1052632,96.319234 42.1052632,97.8723404 C42.1052632,99.4254468 40.8505263,100.680851 39.2982456,100.680851" id="Fill-516" fill="#17C7AF"></path>
                        <path d="M67.3684211,100.680851 L61.754386,100.680851 C60.2021053,100.680851 58.9473684,99.4254468 58.9473684,97.8723404 C58.9473684,96.319234 60.2021053,95.0638298 61.754386,95.0638298 L67.3684211,95.0638298 C68.9207018,95.0638298 70.1754386,96.319234 70.1754386,97.8723404 C70.1754386,99.4254468 68.9207018,100.680851 67.3684211,100.680851" id="Fill-517" fill="#17C7AF"></path>
                        <path d="M64.5614035,114.723404 C63.8035088,114.723404 63.0989474,114.414468 62.5684211,113.880851 C62.0603509,113.375319 61.754386,112.673191 61.754386,111.914894 C61.754386,111.153787 62.0603509,110.45166 62.5684211,109.920851 C63.6070175,108.881702 65.5157895,108.881702 66.554386,109.920851 C67.0596491,110.45166 67.3684211,111.184681 67.3684211,111.914894 C67.3684211,112.645106 67.0596491,113.375319 66.554386,113.908936 C66.0210526,114.414468 65.2912281,114.723404 64.5614035,114.723404" id="Fill-518" fill="#17C7AF"></path>
                        <path d="M50.5263158,100.680851 C49.7964912,100.680851 49.0666667,100.371915 48.5333333,99.866383 C48.0252632,99.332766 47.7192982,98.6025532 47.7192982,97.8723404 C47.7192982,97.1421277 48.0252632,96.4091064 48.5333333,95.8782979 C49.5410526,94.8391489 51.4807018,94.8391489 52.5192982,95.8782979 C53.0245614,96.4091064 53.3333333,97.111234 53.3333333,97.8723404 C53.3333333,98.6025532 53.0245614,99.332766 52.5192982,99.866383 C51.9859649,100.371915 51.2561404,100.680851 50.5263158,100.680851" id="Fill-519" fill="#17C7AF"></path>
                    </g>
                </g>
            </g>
        </g>
    </g>
</svg>